<?xml version="1.0" standalone="no"?>
<!DOCTYPE svg PUBLIC "-//W3C//DTD SVG 20010904//EN"
 "http://www.w3.org/TR/2001/REC-SVG-20010904/DTD/svg10.dtd">
<svg version="1.0" xmlns="http://www.w3.org/2000/svg"
 width="1920.000000pt" height="1080.000000pt" viewBox="0 0 1920.000000 1080.000000"
 preserveAspectRatio="xMidYMid meet">

<g transform="translate(0.000000,1080.000000) scale(0.100000,-0.100000)"
fill="#000000" stroke="none">
<path d="M1499 10667 c-141 -120 -619 -525 -794 -672 -40 -33 -214 -181 -388
-328 l-317 -268 0 -4700 0 -4699 8773 0 8772 0 180 153 c99 84 297 252 440
373 143 121 302 255 354 299 52 44 129 109 171 145 42 36 174 147 293 248
l217 183 0 624 0 625 -6270 0 -6269 0 141 235 141 235 6128 0 6129 0 0 2285 0
2285 -1890 0 c-1039 0 -1890 3 -1890 6 0 3 61 106 136 230 l136 224 1754 0
1754 0 0 1325 0 1325 -8772 0 -8773 0 -156 -133z m-192 -2533 c8 -8 11 -19 7
-25 -4 -7 -1 -10 7 -7 8 3 13 15 12 27 -3 25 4 27 29 4 10 -9 18 -30 18 -50 0
-18 2 -33 4 -33 2 0 12 -3 22 -7 13 -5 15 -3 9 7 -5 8 -2 17 7 24 8 6 17 18
20 27 5 12 1 15 -16 12 -14 -3 -30 3 -41 14 -18 17 -18 18 15 21 19 2 36 -2
41 -10 7 -10 9 -10 9 0 0 15 76 17 85 2 3 -5 -1 -10 -9 -10 -9 0 -16 -7 -16
-15 0 -18 -27 -20 -33 -2 -2 6 -8 9 -12 5 -4 -4 -1 -14 8 -22 8 -8 17 -12 21
-9 3 3 8 -2 12 -11 3 -9 13 -16 21 -16 12 0 12 2 -1 16 -9 8 -14 20 -10 25 8
14 44 -9 38 -24 -2 -7 4 -24 16 -37 11 -13 20 -19 20 -14 0 5 14 15 30 21 17
6 30 18 30 27 0 9 5 16 10 16 6 0 10 -4 10 -10 0 -5 6 -10 14 -10 14 0 18 -7
31 -64 4 -22 10 -27 25 -23 11 3 20 1 20 -4 0 -5 5 -9 10 -9 6 0 10 7 10 15 0
27 17 16 24 -16 3 -18 13 -33 24 -36 14 -3 18 -11 14 -29 -5 -29 -22 -32 -29
-4 -3 11 -9 20 -13 20 -5 0 -5 -12 -1 -27 4 -16 15 -28 24 -28 9 0 22 -6 29
-13 11 -11 10 -12 -4 -7 -17 7 -48 -14 -48 -33 0 -5 -16 -14 -36 -20 -28 -8
-36 -8 -40 3 -3 8 -12 11 -19 9 -9 -4 -5 -13 13 -31 22 -22 27 -23 37 -10 9
13 12 11 22 -9 8 -17 8 -24 -1 -28 -7 -3 -6 -8 4 -15 8 -6 15 -15 15 -20 0 -5
10 -21 23 -36 28 -32 20 -48 -19 -40 -26 6 -29 4 -29 -18 0 -28 24 -54 35 -38
8 14 50 7 49 -7 -1 -7 -2 -28 -2 -47 -1 -23 -7 -35 -16 -35 -14 0 -31 -29 -22
-38 3 -2 12 3 21 12 23 23 35 20 35 -9 0 -28 21 -33 42 -12 13 15 48 11 48 -4
0 -5 4 -9 9 -9 5 0 8 17 7 38 -2 30 2 38 16 39 10 1 18 -5 18 -13 0 -8 4 -14
9 -14 5 0 11 -9 14 -19 3 -15 -1 -21 -17 -23 -23 -3 -31 -42 -8 -44 6 -1 17
-2 22 -3 6 0 8 -12 4 -26 -3 -14 -1 -32 6 -40 6 -8 8 -20 4 -26 -4 -8 -3 -9 4
-5 6 4 20 -1 32 -11 20 -17 27 -34 13 -31 -14 3 -59 -20 -72 -36 -7 -9 -21
-16 -29 -16 -12 0 -13 -3 -4 -12 17 -17 15 -29 -3 -22 -8 4 -15 15 -15 27 0
11 -3 17 -7 14 -3 -4 -15 0 -25 10 -17 15 -18 15 -18 -3 0 -24 -22 -74 -32
-74 -5 0 -8 -10 -8 -21 0 -16 -3 -19 -13 -11 -14 12 -27 6 -43 -23 -12 -21
-56 -24 -62 -5 -2 6 -12 10 -22 10 -10 0 -25 9 -33 21 -9 12 -18 16 -21 10 -8
-12 3 -63 13 -57 14 9 28 -21 20 -43 -8 -20 -10 -21 -25 -7 -8 9 -21 16 -27
15 -9 0 -8 -2 1 -6 14 -5 17 -43 2 -43 -5 0 -14 8 -19 18 -9 15 -10 15 -11 1
0 -9 6 -22 14 -29 8 -6 12 -18 9 -26 -4 -12 1 -14 27 -9 29 5 31 4 17 -10 -21
-20 -44 -19 -51 3 -6 18 -46 28 -46 11 0 -5 5 -9 12 -9 6 0 4 -8 -6 -19 -16
-18 -16 -19 9 -25 28 -7 33 -21 10 -30 -9 -3 -18 1 -21 9 -8 21 -22 19 -19 -2
3 -31 17 -53 32 -53 8 0 13 -6 11 -12 -6 -17 -47 -23 -61 -9 -6 6 -19 11 -29
11 -10 0 -18 4 -18 10 0 12 -55 41 -63 34 -3 -3 -3 -13 0 -22 4 -10 -6 -6 -25
12 -19 17 -37 26 -46 23 -18 -7 -22 -27 -6 -27 6 0 10 4 10 10 0 5 11 -2 25
-15 13 -14 29 -25 36 -25 6 0 9 -7 5 -15 -4 -11 1 -15 19 -15 13 0 27 -5 30
-10 4 -6 11 -8 16 -5 5 4 9 -1 9 -11 0 -12 6 -15 25 -12 27 6 30 1 16 -21 -6
-10 -10 -10 -16 -1 -5 7 -19 10 -40 6 -19 -4 -36 -2 -40 3 -3 6 -12 8 -20 5
-9 -4 -18 1 -22 11 -6 17 -7 17 -18 1 -7 -9 -17 -16 -21 -15 -23 4 -26 -3 -9
-21 18 -20 51 -28 40 -10 -3 6 1 10 10 10 8 0 18 -7 21 -15 7 -18 35 -20 53
-2 11 10 12 7 7 -18 -14 -63 -16 -104 -6 -110 5 -3 10 -15 10 -26 0 -20 33
-39 80 -44 50 -6 90 -18 90 -26 0 -5 7 -9 16 -9 9 0 18 -8 21 -18 3 -14 12
-17 33 -14 15 2 36 -1 47 -7 17 -10 17 -11 -4 -17 -13 -3 -20 -11 -17 -16 3
-5 16 -3 29 6 27 18 44 4 25 -19 -9 -11 -9 -15 -1 -15 6 0 11 -5 11 -11 0 -6
-15 -9 -35 -8 -25 3 -39 -2 -50 -16 -14 -19 -16 -19 -26 -2 -8 13 -14 15 -23
8 -9 -7 -23 -7 -47 2 -45 15 -44 14 -30 31 7 9 8 17 2 20 -16 10 -41 -5 -41
-25 0 -11 -9 -29 -19 -40 -18 -20 -20 -20 -55 -4 -41 19 -83 59 -91 86 -4 12
-12 16 -22 12 -12 -5 -15 -2 -10 9 3 9 -1 24 -9 35 -13 17 -14 17 -20 -4 -3
-13 -10 -23 -16 -23 -5 0 -7 -12 -6 -27 3 -24 -1 -28 -24 -31 -18 -2 -28 1
-29 10 0 7 -4 3 -9 -9 -10 -25 -40 -22 -40 4 0 13 3 13 15 3 13 -11 14 -10 9
4 -6 16 3 20 37 17 26 -3 30 45 6 66 -20 17 -20 17 -13 -2 5 -16 1 -14 -19 8
-18 19 -33 26 -46 22 -13 -4 -19 -2 -19 8 0 19 -27 30 -36 15 -4 -6 5 -21 19
-33 15 -11 27 -26 27 -33 0 -9 5 -10 18 -3 12 6 23 5 34 -3 20 -15 14 -26 -14
-26 -11 0 -23 -11 -28 -26 -8 -21 -7 -29 7 -41 62 -49 85 -54 63 -14 -9 17 -8
21 6 21 9 0 18 -9 21 -20 3 -11 10 -20 16 -20 5 0 15 -8 22 -17 11 -15 15 -15
30 -3 15 12 19 12 30 -3 7 -9 17 -17 24 -17 6 0 11 -4 11 -10 0 -5 10 -10 23
-11 l22 0 -22 -11 c-13 -6 -23 -19 -23 -28 0 -10 -7 -20 -15 -24 -18 -7 -20
15 -3 32 9 9 6 12 -16 12 -25 0 -27 -3 -22 -25 5 -20 3 -25 -14 -25 -16 0 -19
5 -14 28 4 22 2 29 -10 29 -9 0 -16 -4 -16 -9 0 -4 4 -8 10 -8 19 0 -2 -28
-25 -34 -35 -9 -55 3 -62 35 -7 36 -11 39 -62 41 -31 1 -41 5 -41 18 0 10 -9
20 -20 23 -13 3 -20 0 -20 -9 0 -17 -12 -18 -28 -2 -9 9 -12 9 -12 0 0 -7 -4
-12 -10 -12 -5 0 -10 12 -10 28 0 15 4 23 8 17 9 -13 42 -18 42 -7 0 14 -36
43 -43 36 -4 -4 -7 403 -7 905 l0 911 101 -1 c74 0 106 -5 116 -15z m564 -6
l0 -23 11 23 c12 24 56 30 76 10 7 -7 12 -8 12 -2 0 5 14 11 31 12 27 2 30 0
20 -12 -15 -18 -6 -36 17 -36 24 -1 63 -36 65 -59 0 -11 4 -18 8 -16 3 3 15
-5 25 -16 10 -11 24 -17 31 -15 7 3 13 0 13 -6 0 -20 31 -47 48 -41 12 4 12 1
-3 -10 -25 -21 -54 -21 -61 -2 -4 8 -11 15 -16 15 -6 0 -8 -6 -5 -14 4 -10 0
-12 -14 -9 -13 4 -29 -3 -45 -18 -27 -25 -27 -25 -55 24 -5 10 -14 15 -19 12
-4 -3 -14 1 -22 8 -7 8 -26 17 -41 21 -23 5 -27 3 -27 -13 0 -15 5 -19 16 -14
17 6 34 -12 33 -37 0 -10 -3 -8 -9 5 -5 11 -9 14 -9 7 -1 -8 -13 -11 -36 -9
-44 5 -46 7 -49 50 -1 20 -10 44 -19 55 -11 12 -14 23 -9 26 6 3 8 15 5 26 -3
13 0 20 8 20 11 0 11 2 2 8 -13 8 -6 52 8 52 5 0 9 -10 10 -22z m533 8 c-21
-15 -30 -14 -19 3 3 6 14 11 23 11 13 0 13 -2 -4 -14z m76 -1 c-10 -12 -16
-13 -29 -3 -9 7 -18 14 -20 15 -2 2 10 3 29 3 28 0 31 -2 20 -15z m464 0 c-4
-8 -15 -15 -25 -15 -10 0 -19 7 -19 15 0 9 9 15 25 15 18 0 23 -4 19 -15z
m356 11 c0 -3 -4 -8 -10 -11 -5 -3 -10 -1 -10 4 0 6 5 11 10 11 6 0 10 -2 10
-4z m1472 -12 c-13 -9 -21 -22 -18 -29 6 -17 -19 -39 -34 -30 -5 3 -10 17 -10
31 0 13 -4 24 -10 24 -5 0 -10 5 -10 10 0 6 24 10 52 10 51 0 52 0 30 -16z
m292 -6 c17 -27 -4 -40 -36 -24 -19 10 -29 11 -37 3 -8 -8 -11 -6 -11 6 0 9
-4 17 -10 17 -5 0 -10 5 -10 11 0 18 91 6 104 -13z m1180 13 c4 -5 -3 -7 -14
-4 -23 6 -26 13 -6 13 8 0 17 -4 20 -9z m216 -1 c0 -5 -7 -10 -16 -10 -8 0
-12 5 -9 10 3 6 10 10 16 10 5 0 9 -4 9 -10z m317 -4 c-4 -10 -1 -13 8 -9 8 3
12 9 9 14 -3 5 498 9 1211 9 l1217 0 -20 -32 c-11 -18 -133 -226 -272 -463
-302 -513 -910 -1545 -1130 -1915 -86 -146 -212 -359 -280 -475 -68 -115 -135
-228 -149 -250 -14 -22 -34 -57 -44 -78 -11 -21 -28 -42 -38 -48 -11 -5 -19
-18 -19 -28 0 -9 -31 -71 -68 -136 -51 -88 -74 -121 -92 -125 -29 -7 -39 -30
-13 -30 17 -1 17 -1 -1 -15 -11 -8 -32 -15 -48 -15 -21 0 -26 -4 -21 -16 4
-11 8 -12 13 -4 8 13 30 5 30 -11 0 -20 -105 -189 -117 -189 -7 0 -13 -5 -13
-11 0 -5 -4 -8 -8 -5 -4 2 -14 1 -22 -4 -11 -7 -11 -14 -3 -33 9 -20 5 -34
-30 -96 -33 -56 -43 -68 -49 -54 -5 13 -7 10 -7 -12 -1 -31 -81 -180 -108
-202 -9 -7 -36 -12 -60 -11 -24 0 -47 -2 -50 -6 -4 -3 -21 7 -38 24 -38 37
-125 70 -180 70 -72 -1 -74 0 -68 38 4 23 2 37 -8 42 -11 8 -22 115 -19 203 0
9 0 32 0 50 0 17 0 51 0 75 0 44 -28 123 -56 153 -8 9 -32 67 -53 130 -31 90
-42 140 -51 239 -7 69 -21 166 -32 215 -11 50 -28 125 -37 167 l-18 78 38 17
c27 13 37 23 33 34 -5 19 15 69 28 69 5 0 6 -4 3 -10 -7 -12 2 -12 30 0 11 5
14 9 8 9 -21 1 -14 21 7 21 11 0 20 5 20 10 0 14 -34 12 -49 -2 -10 -11 -11
-9 -5 5 6 17 5 18 -15 6 -11 -8 -21 -17 -21 -21 0 -5 -8 -8 -17 -8 -16 1 -16
2 1 15 11 8 16 18 12 22 -4 4 -11 1 -16 -7 -6 -8 -10 -10 -11 -5 0 6 -4 -1 -8
-14 -3 -13 -15 -25 -26 -27 -11 -2 -25 -11 -32 -20 -16 -22 -17 -1 -2 28 12
23 2 40 -11 18 -16 -25 -37 17 -43 87 -4 34 -13 76 -21 92 -20 37 -90 97 -124
106 -15 3 -43 17 -62 30 -19 14 -62 34 -94 45 -33 11 -80 34 -106 50 -26 17
-56 30 -66 30 -25 0 -44 18 -44 41 0 21 19 36 29 22 3 -5 15 -13 25 -16 17 -7
17 -6 5 9 -13 16 -11 17 17 11 39 -8 74 1 74 19 0 8 4 14 8 14 5 0 14 11 21
24 13 23 14 24 89 17 6 -1 12 -7 12 -14 0 -17 36 -34 76 -36 28 -1 31 2 27 23
-5 26 23 44 41 26 5 -5 13 -10 17 -10 12 0 16 33 8 57 -6 17 -4 23 11 28 23 7
25 16 9 32 -9 9 -7 10 10 6 15 -4 21 -1 21 11 0 20 19 21 26 1 5 -12 9 -13 21
-4 12 11 12 14 -1 21 -20 11 -21 28 -1 28 18 0 19 12 4 27 -13 13 -3 36 12 28
5 -4 9 -1 9 6 0 8 13 10 42 6 23 -3 36 -2 29 3 -8 4 -10 13 -7 19 9 14 43 14
51 1 3 -5 14 -10 23 -10 16 1 16 2 0 14 -21 16 -24 27 -4 20 8 -3 17 0 22 7 5
9 -1 11 -24 6 -41 -8 -62 0 -62 25 0 10 4 17 9 13 16 -9 61 17 61 36 0 10 4
20 10 24 11 7 51 -30 43 -39 -4 -3 1 -6 10 -6 25 0 21 34 -5 45 -23 10 -37 65
-17 65 5 0 9 5 9 12 0 6 -3 8 -7 5 -3 -4 -13 -1 -21 6 -13 10 -14 9 -8 -10 4
-12 3 -24 -3 -27 -11 -7 -23 22 -15 37 4 7 -5 0 -20 -15 -27 -29 -46 -36 -46
-18 0 6 -5 10 -11 10 -6 0 -9 -8 -7 -18 3 -10 -1 -27 -8 -37 -8 -11 -14 -13
-14 -6 0 7 -4 10 -9 6 -6 -3 -14 3 -20 12 -7 12 -13 14 -18 7 -11 -15 -73 -26
-73 -13 0 6 -5 7 -10 4 -6 -4 -17 -1 -25 5 -12 10 -23 8 -57 -8 -43 -22 -58
-21 -58 4 0 8 -4 14 -10 14 -5 0 -10 -4 -10 -10 0 -5 -9 -14 -20 -20 -15 -8
-24 -5 -44 17 -22 23 -26 25 -32 10 -5 -14 -8 -14 -20 -2 -8 7 -14 19 -14 25
0 7 -7 9 -16 6 -9 -4 -29 -1 -44 6 -23 10 -28 18 -28 51 -1 48 -7 55 -52 61
-19 3 -37 5 -40 6 -3 1 -12 2 -20 1 -8 0 -24 6 -35 15 -17 13 -18 16 -5 25 13
8 13 11 -3 23 -16 13 -16 15 8 30 22 15 24 20 14 33 -11 13 -10 17 5 29 16 11
17 16 6 29 -8 9 -17 12 -24 7 -22 -17 -57 -21 -63 -7 -2 8 -13 17 -23 20 -13
4 -18 14 -17 33 2 22 -3 28 -23 30 -14 2 -30 10 -36 18 -9 11 -18 12 -38 4
-24 -9 -26 -8 -26 20 0 32 14 40 27 16 9 -17 63 -33 63 -19 0 5 -7 18 -15 29
-13 17 -14 17 -15 2 0 -25 -21 -23 -27 2 -3 11 -12 20 -19 20 -8 0 -14 5 -14
10 0 6 5 10 11 10 6 0 4 7 -5 15 -16 17 -9 56 12 63 7 2 10 -3 6 -12 -7 -17
11 -22 21 -6 3 6 17 10 30 10 18 0 25 -7 30 -30 6 -26 9 -29 22 -19 21 18 55
19 72 2 10 -10 16 -11 21 -3 4 6 14 8 23 4 9 -3 17 -2 17 4 0 5 10 12 23 16
17 5 19 8 8 15 -11 7 -9 11 8 20 12 7 25 10 30 7 4 -3 8 8 8 24 0 17 -5 29
-11 28 -25 -5 -56 14 -57 35 0 12 -2 32 -3 44 -2 19 1 22 21 17 17 -5 23 -2
23 10 0 9 4 16 9 16 12 0 23 -29 16 -41 -4 -5 1 -6 9 -3 9 3 13 10 10 15 -3 5
-1 9 4 9 6 0 12 7 15 14 4 10 1 13 -7 10 -8 -3 -17 -1 -20 4 -7 11 49 34 59
24 3 -4 4 16 0 43 -3 27 -10 52 -16 56 -7 4 -4 9 6 13 15 5 15 8 1 28 -23 33
-21 119 3 147 14 16 21 18 24 9 4 -10 8 -10 16 2 10 13 12 13 20 0 5 -8 7 -18
5 -22 -10 -16 11 -38 26 -28 13 8 13 11 1 19 -15 10 -5 35 10 25 5 -3 9 -2 8
3 -4 24 2 45 14 40 6 -2 18 2 25 9 10 12 10 14 -3 14 -9 0 -18 7 -22 16 -5 13
-7 13 -14 2 -7 -10 -9 -9 -9 5 0 9 -7 17 -15 17 -29 0 -15 25 15 27 69 6 80 9
80 21 0 6 7 12 16 12 11 0 14 -5 10 -16 -3 -9 -6 -20 -6 -25 0 -6 -4 -8 -9 -5
-16 10 -20 -23 -5 -39 20 -19 34 -11 34 21 0 13 4 24 9 24 10 0 15 -13 26 -68
5 -25 10 -31 18 -23 14 14 57 15 57 1 0 -5 -8 -15 -19 -22 -18 -11 -18 -12 0
-32 17 -17 23 -19 40 -8 11 7 25 10 31 6 7 -4 8 -3 4 4 -4 7 -3 12 2 12 5 0
12 9 15 20 3 10 20 25 38 33 32 13 33 14 12 21 -13 4 -23 15 -23 24 0 11 -3
13 -8 6 -4 -6 -16 -16 -28 -22 -17 -9 -24 -7 -37 9 -9 10 -17 23 -17 28 0 5
-7 14 -15 21 -22 18 -19 27 12 35 19 4 31 2 39 -9 14 -20 24 -20 24 -1 0 8 -4
15 -8 15 -11 0 -9 42 4 63 10 18 12 17 47 -3 37 -22 48 -40 25 -40 -9 0 -9 -3
1 -12 13 -14 71 -18 71 -5 0 11 134 4 142 -8 11 -15 10 -22 -8 -39 -8 -9 -11
-16 -6 -16 6 0 17 -3 26 -6 12 -4 16 0 16 16 0 17 3 20 13 12 7 -6 23 -8 36
-5 14 4 26 1 32 -8 7 -11 9 -10 9 4 0 9 4 17 8 17 11 0 28 52 24 73 -2 11 -9
16 -18 13 -9 -4 -18 4 -24 20 -14 36 -13 41 10 47 11 3 20 10 20 15 0 6 -9 8
-20 5 -25 -7 -25 2 -2 25 13 13 25 16 38 11 10 -4 15 -8 11 -8 -5 -1 -1 -8 8
-17 21 -22 43 -11 47 23 3 26 6 28 53 29 68 1 69 2 55 19 -17 20 -7 28 35 29
33 1 33 2 19 23 -18 28 -18 37 1 29 8 -3 14 0 12 7 -1 7 5 12 13 12 8 0 14 -5
13 -11 -3 -17 55 -23 68 -8 6 7 8 18 4 24 -3 6 3 10 15 10 15 0 20 -5 17 -14z
m8173 9 c0 -2 -61 -106 -137 -230 l-136 -225 -2534 0 c-1393 0 -2533 2 -2533
5 0 2 61 106 137 230 l136 225 2534 0 c1393 0 2533 -2 2533 -5z m-13374 -20
c-8 -8 -18 -15 -22 -15 -3 0 -1 7 6 15 7 8 17 15 22 15 5 0 3 -7 -6 -15z
m5022 -14 c28 -23 28 -31 1 -31 -15 0 -19 5 -15 15 3 8 1 15 -4 15 -6 0 -10 5
-10 10 0 14 4 13 28 -9z m-3321 -13 c-3 -8 -6 -5 -6 6 -1 11 2 17 5 13 3 -3 4
-12 1 -19z m-206 -3 c9 6 11 3 6 -9 -4 -11 -3 -15 4 -10 6 4 14 1 18 -5 11
-17 71 6 64 25 -3 8 -1 14 5 14 6 0 15 -13 21 -30 8 -25 7 -30 -5 -30 -8 0
-14 -7 -12 -16 2 -9 -5 -21 -14 -27 -13 -9 -21 -7 -36 6 -10 10 -26 15 -35 12
-18 -7 -48 31 -40 51 3 8 0 14 -7 14 -6 0 -8 5 -4 11 5 8 9 8 14 -1 5 -7 13
-9 21 -5z m1889 5 c0 -5 -4 -10 -10 -10 -5 0 -10 5 -10 10 0 6 5 10 10 10 6 0
10 -4 10 -10z m-3375 -10 c3 -5 1 -10 -4 -10 -6 0 -11 5 -11 10 0 6 2 10 4 10
3 0 8 -4 11 -10z m55 -6 c0 -8 -4 -12 -10 -9 -5 3 -10 10 -10 16 0 5 5 9 10 9
6 0 10 -7 10 -16z m1380 1 c16 -20 1 -39 -26 -33 -27 5 -32 48 -6 48 11 0 25
-7 32 -15z m1910 5 c0 -5 -4 -10 -10 -10 -5 0 -10 5 -10 10 0 6 5 10 10 10 6
0 10 -4 10 -10z m540 0 c0 -5 -4 -10 -10 -10 -5 0 -10 5 -10 10 0 6 5 10 10
10 6 0 10 -4 10 -10z m-2615 -11 c4 -6 5 -12 2 -15 -7 -7 -37 7 -37 17 0 13
27 11 35 -2z m435 -9 c0 -5 -2 -10 -4 -10 -3 0 -8 5 -11 10 -3 6 -1 10 4 10 6
0 11 -4 11 -10z m-1550 -8 c0 -5 -7 -9 -15 -9 -8 0 -15 4 -15 9 0 4 7 8 15 8
8 0 15 -4 15 -8z m10 -32 c0 -5 -7 -10 -16 -10 -8 0 -12 5 -9 10 3 6 10 10 16
10 5 0 9 -4 9 -10z m410 0 c0 -5 -4 -10 -10 -10 -5 0 -10 5 -10 10 0 6 5 10
10 10 6 0 10 -4 10 -10z m780 2 c0 -4 -10 -8 -22 -9 -11 -1 -25 -8 -29 -15 -7
-10 -9 -9 -9 4 0 9 6 19 13 21 19 8 47 8 47 -1z m3504 -24 c-6 -9 -34 -11 -34
-3 0 3 6 12 13 19 12 14 31 0 21 -16z m-146 -6 c21 -21 18 -44 -4 -35 -8 3
-14 0 -14 -6 0 -11 -27 -10 -60 3 -20 7 -47 -14 -60 -49 -10 -27 -11 -27 -25
-9 -24 31 -18 58 16 73 16 7 42 11 56 8 17 -3 32 2 44 14 23 23 25 23 47 1z
m-4448 -17 c0 -8 -7 -15 -15 -15 -8 0 -15 7 -15 15 0 8 7 15 15 15 8 0 15 -7
15 -15z m947 9 c-3 -3 -12 -4 -19 -1 -8 3 -5 6 6 6 11 1 17 -2 13 -5z m293 -4
c0 -5 -7 -10 -16 -10 -8 0 -12 5 -9 10 3 6 10 10 16 10 5 0 9 -4 9 -10z m1199
-13 c6 -8 8 -17 4 -20 -7 -8 -33 11 -33 24 0 13 16 11 29 -4z m-1269 -27 c0
-5 -9 -10 -21 -10 -11 0 -17 5 -14 10 3 6 13 10 21 10 8 0 14 -4 14 -10z
m2470 -11 c0 -5 -4 -9 -10 -9 -5 0 -10 7 -10 16 0 8 5 12 10 9 6 -3 10 -10 10
-16z m385 11 c-3 -5 -10 -10 -16 -10 -5 0 -9 5 -9 10 0 6 7 10 16 10 8 0 12
-4 9 -10z m-1590 -30 c6 -5 27 -11 48 -15 20 -4 37 -12 37 -18 0 -6 12 -24 28
-41 l27 -29 -40 23 c-22 13 -53 33 -69 44 -22 14 -59 23 -140 31 -73 8 -99 13
-76 16 46 6 172 -2 185 -11z m1711 -7 c-10 -10 -19 5 -10 18 6 11 8 11 12 0 2
-7 1 -15 -2 -18z m281 13 c-3 -7 -1 -18 4 -23 6 -6 4 -14 -6 -23 -8 -7 -15
-18 -15 -25 0 -7 -9 -15 -20 -18 -22 -6 -29 18 -7 26 9 3 9 7 0 19 -10 11 -9
19 3 36 17 24 49 31 41 8z m-1237 -6 c0 -5 -4 -10 -10 -10 -5 0 -10 5 -10 10
0 6 5 10 10 10 6 0 10 -4 10 -10z m1011 -14 c1 -6 1 -17 0 -23 -1 -7 3 -13 9
-13 5 0 10 5 10 10 0 6 7 10 15 10 8 0 15 -4 15 -10 0 -5 7 -10 15 -10 12 0
13 -4 3 -25 -18 -40 -45 -31 -73 25 -14 27 -25 52 -25 54 0 11 30 -7 31 -18z
m284 6 c0 -18 -20 -15 -23 4 -3 10 1 15 10 12 7 -3 13 -10 13 -16z m-2385 -7
c-33 -19 -19 -19 25 -1 30 13 40 13 72 1 l38 -14 -40 -1 c-47 -2 -77 -12 -74
-25 2 -13 -40 -35 -67 -35 -20 0 -77 -52 -87 -80 -4 -10 -6 -8 -6 7 -1 26 39
76 80 100 16 10 28 22 26 28 -4 10 30 34 48 34 6 0 -1 -6 -15 -14z m1930 11
c0 -2 -9 -6 -20 -9 -11 -3 -18 -1 -14 4 5 9 34 13 34 5z m-3551 -57 c-17 -10
-33 15 -24 38 5 14 8 13 22 -6 13 -19 13 -25 2 -32z m2685 35 c3 -8 2 -12 -4
-9 -6 3 -10 10 -10 16 0 14 7 11 14 -7z m905 -27 c1 -5 -3 -5 -9 -2 -5 3 -10
16 -9 28 0 21 1 21 9 2 5 -11 9 -24 9 -28z m-3779 19 c0 -3 -4 -8 -10 -11 -5
-3 -10 -1 -10 4 0 6 5 11 10 11 6 0 10 -2 10 -4z m1985 -6 c-3 -5 -10 -10 -16
-10 -5 0 -9 5 -9 10 0 6 7 10 16 10 8 0 12 -4 9 -10z m330 0 c-3 -5 -17 -10
-30 -10 -13 0 -27 5 -30 10 -4 6 8 10 30 10 22 0 34 -4 30 -10z m-2535 -10 c0
-5 -2 -10 -4 -10 -3 0 -8 5 -11 10 -3 6 -1 10 4 10 6 0 11 -4 11 -10z m1960 6
c0 -2 -8 -10 -17 -17 -16 -13 -17 -12 -4 4 13 16 21 21 21 13z m1530 -11 c0
-8 -4 -15 -10 -15 -5 0 -10 7 -10 15 0 8 5 15 10 15 6 0 10 -7 10 -15z m-1340
-5 c0 -5 -8 -10 -17 -10 -15 0 -16 2 -3 10 19 12 20 12 20 0z m1398 -5 c-4
-12 -38 -18 -38 -6 0 10 20 20 33 17 5 -1 7 -6 5 -11z m132 -15 c0 -5 -8 -14
-17 -19 -10 -6 -14 -11 -10 -11 12 0 -12 -40 -24 -40 -6 0 -8 4 -5 9 3 5 -2
12 -11 15 -9 4 -19 2 -22 -3 -4 -5 -13 -4 -24 4 -16 12 -14 14 22 20 23 4 39
10 36 15 -3 5 1 11 7 13 22 9 48 7 48 -3z m30 -29 c0 -11 -5 -23 -12 -27 -6
-4 -8 -3 -4 4 3 5 1 12 -6 14 -6 2 -8 10 -4 16 11 18 26 14 26 -7z m-907 -28
c9 -9 24 -30 32 -47 l15 -31 -25 28 c-13 15 -28 27 -33 27 -6 0 -13 7 -16 16
-3 8 -10 13 -15 10 -5 -3 -15 2 -22 11 -13 15 -11 16 16 9 17 -4 38 -15 48
-23z m592 7 c4 -11 10 -18 15 -15 5 3 11 1 15 -5 3 -5 -1 -10 -11 -10 -15 0
-15 -2 0 -25 21 -32 14 -32 -18 -1 -15 16 -20 27 -13 29 9 3 8 8 -1 18 -11 12
-14 12 -22 -1 -11 -17 -13 -9 -4 14 9 22 31 20 39 -4z m-1305 -46 c12 -12 12
-14 -3 -14 -9 0 -17 -4 -17 -9 0 -5 -11 -4 -25 2 -24 12 -31 27 -18 40 9 9 44
-2 63 -19z m1261 4 c21 -24 24 -38 8 -38 -5 0 -8 4 -5 8 3 5 -4 15 -15 22 -10
8 -19 18 -19 22 0 14 12 9 31 -14z m126 -14 c-9 -9 -28 6 -21 18 4 6 10 6 17
-1 6 -6 8 -13 4 -17z m193 8 c0 -9 -9 -23 -20 -29 -16 -11 -18 -10 -14 2 4 8
1 15 -5 15 -18 0 -13 18 7 23 30 8 32 7 32 -11z m-1764 -21 c36 9 154 -40 154
-63 0 -5 -20 2 -45 16 -40 24 -49 26 -100 18 -30 -5 -65 -18 -76 -28 -11 -10
-31 -29 -43 -41 -13 -13 -27 -23 -32 -23 -5 -1 -22 -11 -38 -25 -24 -19 -27
-26 -18 -38 10 -11 3 -22 -34 -55 -25 -23 -49 -42 -54 -42 -11 0 -30 -56 -22
-65 4 -3 -1 -3 -11 1 -12 4 -17 1 -17 -10 0 -9 -4 -16 -10 -16 -5 0 -10 9 -10
20 0 27 -16 25 -23 -2 -4 -12 -9 -19 -12 -16 -15 14 56 108 81 108 17 0 37 27
29 40 -5 8 -13 6 -26 -6 -22 -20 -33 -15 -23 11 4 9 25 26 48 36 31 14 35 19
19 19 -13 0 -23 4 -23 8 0 12 48 52 62 52 6 0 8 3 5 7 -7 7 20 25 65 43 14 6
29 18 32 26 3 8 16 14 28 14 13 0 32 7 42 15 13 10 23 12 32 4 6 -5 16 -9 20
-8z m1399 -1 c3 -5 1 -10 -4 -10 -6 0 -11 5 -11 10 0 6 2 10 4 10 3 0 8 -4 11
-10z m420 0 c3 -5 -1 -10 -9 -10 -9 0 -16 5 -16 10 0 6 4 10 9 10 6 0 13 -4
16 -10z m220 0 c8 -13 -5 -13 -25 0 -13 8 -13 10 2 10 9 0 20 -4 23 -10z
m-431 -15 c3 -8 2 -15 -3 -15 -5 0 -14 7 -21 15 -10 12 -10 15 3 15 8 0 17 -7
21 -15z m-170 -11 c8 -20 8 -24 -1 -24 -17 0 -35 19 -29 29 10 16 23 14 30 -5z
m336 6 c-20 -13 -33 -13 -25 0 3 6 14 10 23 10 15 0 15 -2 2 -10z m-290 -10
c0 -5 -5 -10 -11 -10 -5 0 -7 5 -4 10 3 6 8 10 11 10 2 0 4 -4 4 -10z m342
-14 c3 2 8 -2 11 -11 4 -8 3 -15 -1 -15 -15 1 -42 28 -42 41 1 10 4 9 14 -3 7
-10 15 -15 18 -12z m-152 4 c0 -5 -4 -10 -10 -10 -5 0 -10 5 -10 10 0 6 5 10
10 10 6 0 10 -4 10 -10z m-1656 -9 c3 -5 -5 -11 -19 -13 -28 -6 -35 8 -7 15 9
3 18 5 19 6 1 0 4 -3 7 -8z m1673 -21 c-1 -22 -17 -28 -17 -7 0 12 9 27 16 27
2 0 2 -9 1 -20z m-207 -22 c0 -7 -5 -6 -13 1 -8 6 -17 8 -20 4 -4 -3 -7 -2 -7
4 0 17 13 23 27 12 7 -6 13 -16 13 -21z m-1455 -8 c3 -5 2 -10 -4 -10 -5 0
-13 5 -16 10 -3 6 -2 10 4 10 5 0 13 -4 16 -10z m1345 -15 c0 -1 -7 -8 -15
-15 -13 -10 -15 -9 -15 8 0 15 5 20 15 16 8 -4 15 -7 15 -9z m-195 -5 c3 -5 1
-10 -4 -10 -6 0 -11 5 -11 10 0 6 2 10 4 10 3 0 8 -4 11 -10z m-1138 -19 c9
-11 21 -17 28 -15 7 3 18 -10 25 -28 7 -18 20 -38 27 -45 18 -14 32 -73 33
-135 0 -27 5 -48 10 -48 6 0 10 -15 10 -34 0 -29 -3 -33 -19 -29 -13 3 -21 -1
-25 -14 -7 -22 -58 -43 -104 -43 -31 0 -32 -1 -32 -45 0 -30 5 -47 16 -53 11
-6 15 -17 11 -33 -9 -39 -33 -100 -38 -95 -2 2 -5 -11 -6 -30 -3 -72 -6 -84
-19 -85 -26 -3 -30 -4 -51 -24 -29 -28 -21 -69 18 -85 16 -7 29 -16 29 -19 0
-4 18 -17 40 -30 22 -12 40 -27 40 -33 0 -16 -43 -47 -67 -48 -17 0 -24 -8
-29 -35 -8 -42 2 -57 20 -32 7 9 24 16 37 16 24 -2 24 -2 2 -6 -28 -5 -30 -29
-3 -45 11 -7 20 -18 20 -25 0 -9 7 -10 26 -2 21 7 31 6 45 -7 19 -17 26 -17
128 2 22 5 32 3 27 -4 -3 -6 0 -13 6 -16 25 -10 -56 -56 -209 -122 -24 -10
-43 -25 -43 -33 -1 -12 -6 -9 -21 9 -17 20 -20 33 -15 70 5 35 1 55 -15 85
-30 57 -66 190 -80 297 -12 92 -12 94 15 145 14 29 26 64 26 78 0 15 4 23 10
20 12 -8 50 53 50 81 0 12 -5 35 -11 53 -12 35 -36 40 -83 16 -16 -9 -31 -13
-34 -10 -3 2 5 40 17 82 11 43 27 105 35 138 12 54 23 86 59 167 6 15 22 32
34 39 13 7 23 16 23 21 0 14 20 9 37 -11z m1333 -16 c-7 -9 -15 -13 -19 -10
-3 3 1 10 9 15 21 14 24 12 10 -5z m310 -5 c0 -11 5 -20 10 -20 6 0 10 -6 10
-14 0 -7 -9 -13 -21 -12 -17 1 -23 9 -25 34 -3 23 0 32 11 32 8 0 15 -9 15
-20z m-452 -49 c24 -46 39 -74 51 -99 5 -10 11 -33 15 -52 6 -32 5 -33 -5 -10
-7 14 -30 63 -52 110 -23 47 -43 89 -45 94 -3 5 0 6 6 2 5 -3 19 -24 30 -45z
m202 39 c0 -5 -5 -10 -11 -10 -5 0 -7 5 -4 10 3 6 8 10 11 10 2 0 4 -4 4 -10z
m-1500 -10 c0 -5 -5 -10 -11 -10 -5 0 -7 5 -4 10 3 6 8 10 11 10 2 0 4 -4 4
-10z m1368 -2 c-6 -18 -45 -29 -45 -13 0 8 4 12 8 9 4 -2 10 0 14 6 9 14 28
13 23 -2z m-2118 -8 c0 -5 -4 -10 -10 -10 -5 0 -10 5 -10 10 0 6 5 10 10 10 6
0 10 -4 10 -10z m2447 -11 c9 -9 8 -15 -2 -25 -16 -16 -45 -19 -45 -4 0 6 5
10 10 10 6 0 10 7 10 15 0 18 12 19 27 4z m-317 -13 c0 -3 -4 -8 -10 -11 -5
-3 -10 -1 -10 4 0 6 5 11 10 11 6 0 10 -2 10 -4z m91 -19 c-10 -9 -11 -8 -5 6
3 10 9 15 12 12 3 -3 0 -11 -7 -18z m-3031 -63 c0 -8 6 -14 13 -14 8 0 8 -3
-2 -9 -21 -13 49 -84 75 -75 16 5 16 4 4 -5 -13 -9 -11 -12 8 -17 16 -5 21
-11 16 -23 -3 -9 -7 -22 -7 -28 -1 -18 -26 -16 -34 3 -5 13 -9 12 -29 -7 -24
-22 -25 -22 -42 -4 -13 14 -13 16 -1 7 15 -12 29 -7 29 10 0 12 -34 10 -47 -3
-13 -13 -63 -4 -63 12 0 6 9 8 20 4 13 -4 20 -2 20 6 0 7 7 21 17 31 20 22 9
36 -17 20 -10 -6 -21 -8 -24 -3 -11 17 2 83 20 100 21 20 44 17 44 -5z m3230
-4 c0 -5 14 -10 30 -12 l30 -3 -23 -27 c-17 -20 -29 -25 -50 -21 -27 5 -27 6
-12 30 16 23 12 49 -6 38 -5 -4 -9 1 -9 10 0 13 4 14 20 5 11 -6 20 -15 20
-20z m-1850 1 c0 -5 -7 -11 -15 -15 -15 -5 -20 5 -8 17 9 10 23 9 23 -2z m-63
-103 c-3 -8 -6 -5 -6 6 -1 11 2 17 5 13 3 -3 4 -12 1 -19z m49 -36 c-11 -10
-14 3 -8 33 l7 30 3 -28 c2 -16 1 -31 -2 -35z m1854 -2 c0 -5 -4 -10 -10 -10
-5 0 -10 5 -10 10 0 6 5 10 10 10 6 0 10 -4 10 -10z m-10 -40 c0 -5 -2 -10 -4
-10 -3 0 -8 5 -11 10 -3 6 -1 10 4 10 6 0 11 -4 11 -10z m-1855 -37 c0 -23 15
-45 15 -22 1 10 5 8 15 -5 16 -21 18 -17 15 29 -1 27 0 29 15 14 21 -21 11
-103 -13 -94 -8 3 -20 1 -27 -5 -9 -7 -16 -6 -24 4 -7 8 -23 13 -37 10 -13 -2
-24 0 -24 6 0 6 5 8 10 5 15 -9 12 4 -5 21 -20 20 -19 44 1 44 8 0 12 -4 9
-10 -4 -6 1 -7 11 -3 11 4 13 8 6 11 -21 7 -13 23 11 20 15 -2 22 -10 22 -25z
m1831 -10 c-11 -11 -19 6 -11 24 8 17 8 17 12 0 3 -10 2 -21 -1 -24z m-3046 6
c0 -5 -4 -9 -10 -9 -5 0 -10 7 -10 16 0 8 5 12 10 9 6 -3 10 -10 10 -16z m-80
-29 c0 -5 -4 -10 -9 -10 -6 0 -13 5 -16 10 -3 6 1 10 9 10 9 0 16 -4 16 -10z
m-313 -72 c-3 -8 -6 -5 -6 6 -1 11 2 17 5 13 3 -3 4 -12 1 -19z m69 -28 c15 0
19 -16 6 -24 -11 -6 -43 30 -34 39 4 3 8 1 10 -4 2 -6 10 -11 18 -11z m1601 4
c-3 -3 -12 -4 -19 -1 -8 3 -5 6 6 6 11 1 17 -2 13 -5z m43 -6 c0 -4 -4 -8 -9
-8 -6 0 -12 4 -15 8 -3 5 1 9 9 9 8 0 15 -4 15 -9z m-1092 -32 c30 -5 30 -22
-1 -21 -26 0 -33 -4 -35 -23 -5 -30 -29 -39 -46 -16 -12 15 -10 21 13 45 15
16 32 26 41 23 8 -3 21 -7 28 -8z m1053 -38 c-1 -25 2 -49 8 -53 6 -3 9 -10 6
-14 -2 -5 0 -23 5 -41 5 -19 8 -36 5 -38 -2 -2 -19 12 -38 32 -19 19 -32 38
-30 40 3 2 -5 7 -16 11 -28 9 -29 55 -1 55 13 0 18 5 14 15 -8 20 15 47 35 43
12 -2 15 -14 12 -50z m-1481 32 c0 -5 -2 -10 -4 -10 -3 0 -8 5 -11 10 -3 6 -1
10 4 10 6 0 11 -4 11 -10z m1533 -8 c13 -14 16 -29 11 -65 -4 -26 -10 -47 -13
-47 -11 0 -31 64 -31 98 0 36 10 40 33 14z m-1713 -2 c0 -5 -2 -10 -4 -10 -3
0 -8 5 -11 10 -3 6 -1 10 4 10 6 0 11 -4 11 -10z m90 -21 c0 -7 -18 -7 -48 0
-2 1 -1 5 2 10 7 11 46 2 46 -10z m140 -10 c0 -5 5 -9 11 -9 5 0 7 5 3 12 -5
8 -2 9 9 5 9 -3 19 -1 23 5 4 7 9 6 15 -3 4 -8 13 -14 19 -14 24 0 11 -20 -16
-26 -28 -5 -28 -5 -6 -13 19 -6 21 -10 11 -22 -10 -12 -9 -13 5 -8 9 3 16 2
16 -3 0 -5 14 -8 30 -5 17 2 30 8 30 12 0 4 14 10 31 12 21 3 33 0 37 -10 5
-16 -25 -45 -39 -37 -4 3 -10 -1 -12 -7 -3 -8 -6 -6 -6 4 -1 21 -29 14 -51
-13 -15 -19 -16 -19 -50 -1 -19 11 -47 22 -62 26 -16 3 -28 12 -28 19 0 7 -14
13 -32 13 -17 1 -37 9 -43 18 -7 9 -18 16 -24 16 -7 0 -11 6 -8 13 2 7 23 12
55 12 36 -1 52 3 52 12 0 7 7 10 15 7 8 -4 15 -10 15 -15z m2080 -51 c0 -8 -9
-21 -20 -31 -11 -9 -23 -31 -27 -47 -3 -17 -12 -30 -20 -30 -9 0 -13 -6 -9
-15 3 -8 1 -15 -4 -15 -6 0 -10 -9 -10 -20 0 -10 -10 -25 -22 -31 -21 -11 -21
-12 -3 -25 19 -14 15 -17 -21 -15 -13 1 -24 -7 -32 -24 -13 -28 -26 -28 -109
2 -37 14 -67 43 -43 43 12 0 40 58 40 82 0 11 -7 32 -16 47 -15 26 -15 30 2
55 17 27 18 28 33 8 9 -11 30 -27 48 -36 17 -8 37 -22 45 -29 20 -20 51 -28
67 -18 21 13 6 39 -26 47 -31 7 -83 61 -82 84 0 8 2 11 5 5 5 -12 145 -7 158
6 11 10 46 -23 46 -43z m5 42 c3 -5 1 -10 -4 -10 -6 0 -11 5 -11 10 0 6 2 10
4 10 3 0 8 -4 11 -10z m-2310 -10 c-3 -5 -11 -10 -16 -10 -6 0 -7 5 -4 10 3 6
11 10 16 10 6 0 7 -4 4 -10z m-217 -28 c2 -7 -4 -12 -13 -12 -18 0 -47 25 -39
33 9 8 47 -8 52 -21z m1775 3 c-3 -9 -8 -14 -10 -11 -3 3 -2 9 2 15 9 16 15
13 8 -4z m-1613 1 c0 -3 -4 -8 -10 -11 -5 -3 -10 -1 -10 4 0 6 5 11 10 11 6 0
10 -2 10 -4z m3300 -6 c0 -5 -4 -10 -10 -10 -5 0 -10 5 -10 10 0 6 5 10 10 10
6 0 10 -4 10 -10z m-1662 -72 c18 -18 16 -44 -2 -29 -8 6 -20 10 -27 9 -7 -2
-15 5 -17 15 -4 20 27 24 46 5z m298 -26 c-8 -9 -19 -13 -22 -9 -10 9 16 38
28 31 6 -4 4 -13 -6 -22z m13647 6 c26 -6 75 -28 107 -50 208 -138 251 -514
85 -733 -37 -47 -119 -100 -189 -120 -87 -26 -222 -18 -298 17 -157 72 -242
225 -242 433 0 153 36 255 122 347 101 108 241 144 415 106z m-13877 -7 c-3
-5 3 -11 14 -14 29 -7 24 -23 -10 -36 -16 -5 -30 -12 -30 -15 0 -3 12 -17 27
-31 38 -34 8 -33 -32 2 -19 17 -25 28 -17 31 6 2 12 8 12 13 0 6 -4 7 -10 4
-5 -3 -10 1 -10 9 0 9 7 16 15 16 8 0 15 7 15 15 0 8 7 15 16 15 8 0 13 -4 10
-9z m8934 -81 l0 -90 -205 0 -205 0 0 -95 0 -95 175 0 175 0 0 -80 0 -80 -175
0 -175 0 0 -100 0 -100 205 0 205 0 0 -90 0 -90 -305 0 -305 0 0 455 0 455
305 0 305 0 0 -90z m573 79 c79 -16 165 -67 213 -126 121 -148 134 -419 31
-596 -48 -81 -140 -143 -245 -166 -29 -6 -143 -11 -252 -11 l-200 0 0 455 0
455 198 0 c109 0 224 -5 255 -11z m627 -259 c0 -156 5 -290 11 -320 25 -118
134 -171 247 -120 34 15 48 29 65 67 21 46 22 63 25 346 l3 297 100 0 100 0
-3 -327 c-3 -318 -4 -330 -27 -387 -29 -73 -92 -138 -169 -174 -52 -25 -68
-27 -177 -27 -111 0 -124 2 -176 27 -101 50 -163 132 -188 246 -7 32 -11 168
-11 347 l0 295 100 0 100 0 0 -270z m1312 -180 c87 -245 158 -449 158 -453 0
-4 -46 -6 -102 -5 l-102 3 -31 100 -31 100 -145 3 -145 3 -33 -106 -32 -105
-100 0 c-100 0 -101 0 -96 23 6 27 304 864 312 878 4 6 45 9 98 7 l92 -3 157
-445z m730 426 c59 -22 132 -86 160 -140 30 -58 37 -180 13 -243 -21 -54 -75
-117 -122 -141 l-33 -17 95 -168 c52 -92 95 -170 95 -173 0 -2 -48 -3 -106 -2
l-106 3 -86 157 -87 158 -52 0 -53 0 0 -160 0 -160 -100 0 -100 0 0 456 0 456
218 -4 c173 -4 226 -8 264 -22z m820 -5 c157 -61 248 -219 248 -426 0 -158
-43 -269 -137 -355 -92 -84 -130 -94 -395 -98 l-228 -4 0 457 0 457 228 -4
c206 -4 232 -6 284 -27z m-13056 -39 c-9 -8 -26 10 -26 26 1 15 2 15 15 -2 8
-11 13 -21 11 -24z m1714 -92 c0 -5 -2 -10 -4 -10 -3 0 -8 5 -11 10 -3 6 -1
10 4 10 6 0 11 -4 11 -10z m-1690 -44 c0 -8 -4 -18 -10 -21 -5 -3 -10 3 -10
14 0 12 5 21 10 21 6 0 10 -6 10 -14z m40 -7 c0 -5 -4 -9 -10 -9 -5 0 -10 7
-10 16 0 8 5 12 10 9 6 -3 10 -10 10 -16z m-77 -3 c4 -10 1 -13 -9 -9 -15 6
-19 23 -5 23 5 0 11 -7 14 -14z m-1889 -40 c20 -43 21 -57 0 -28 -8 12 -22 22
-30 22 -16 0 -16 2 -8 24 9 24 20 19 38 -18z m1953 -3 c-3 -3 -11 -2 -17 2 -9
6 -9 10 1 16 14 8 27 -7 16 -18z m-432 7 c3 -5 -1 -10 -10 -10 -9 0 -13 5 -10
10 3 6 8 10 10 10 2 0 7 -4 10 -10z m355 -9 c0 -6 -4 -13 -10 -16 -5 -3 -10 1
-10 9 0 9 5 16 10 16 6 0 10 -4 10 -9z m-1488 -30 c41 5 75 -12 62 -32 -5 -8
-9 -20 -10 -27 -4 -24 -14 -26 -14 -4 0 15 -5 20 -15 16 -8 -4 -15 -1 -15 4 0
19 -32 45 -40 32 -4 -6 -14 -8 -23 -5 -14 6 -14 8 1 26 15 18 18 18 29 4 6 -9
17 -15 25 -14z m108 9 c0 -5 -8 -10 -17 -10 -15 0 -16 2 -3 10 19 12 20 12 20
0z m1470 -1 c0 -5 -11 -8 -25 -7 -14 1 -25 5 -25 9 0 4 11 7 25 7 14 0 25 -4
25 -9z m-1870 -51 c0 -10 7 -18 15 -18 29 0 58 -37 51 -64 -11 -44 -33 -27
-27 21 3 21 -34 20 -47 -2 -12 -20 -12 -20 -10 0 2 14 -4 21 -19 23 -21 3 -42
32 -22 32 6 0 7 5 4 11 -4 5 1 19 11 30 17 19 19 19 31 3 7 -10 13 -26 13 -36z
m1370 34 c16 6 26 6 28 -1 2 -6 10 -11 18 -11 8 0 13 -9 11 -22 -1 -15 5 -24
23 -29 14 -4 20 -7 13 -8 -6 -1 -9 -10 -6 -20 3 -12 11 -17 19 -14 10 4 11 9
5 17 -14 16 3 40 23 33 9 -4 16 -13 16 -22 0 -13 18 -20 42 -16 4 0 5 -6 2
-14 -7 -17 7 -20 23 -4 7 7 13 7 17 1 12 -19 -134 -112 -175 -112 -23 0 -24 8
-2 32 18 20 38 25 27 6 -5 -10 -4 -10 6 -1 14 13 4 37 -12 27 -6 -4 -8 2 -3
17 3 13 3 19 -2 13 -4 -6 -16 -14 -27 -17 -13 -5 -17 -14 -14 -32 5 -26 -14
-51 -31 -41 -5 3 -12 0 -14 -6 -4 -9 -8 -10 -14 -2 -7 9 -23 10 -77 5 -5 -1
-3 -7 3 -15 9 -11 6 -13 -18 -12 -39 2 -48 12 -28 34 10 10 14 21 11 25 -4 4
7 2 25 -3 17 -4 33 -5 36 -1 2 5 16 6 30 3 15 -2 25 0 25 7 0 7 -5 9 -11 5
-14 -8 -29 14 -22 33 3 8 12 12 19 9 8 -3 14 1 14 10 0 9 13 29 29 45 26 26
28 31 14 44 -8 8 -19 13 -24 9 -16 -9 -69 7 -69 21 0 11 6 12 23 6 12 -5 33
-4 47 1z m420 -7 c-7 -8 -16 -15 -21 -15 -5 0 -9 7 -9 15 0 9 9 15 21 15 18 0
19 -2 9 -15z m-1560 -15 c0 -5 -4 -10 -10 -10 -5 0 -10 5 -10 10 0 6 5 10 10
10 6 0 10 -4 10 -10z m1639 -22 c6 11 9 10 13 -5 3 -10 9 -26 13 -35 6 -15 3
-17 -23 -12 -25 5 -33 2 -47 -20 l-17 -26 -25 25 c-28 27 -25 59 4 48 10 -3
15 -2 10 2 -4 5 5 14 20 20 20 9 30 9 36 1 5 -8 10 -7 16 2z m-1969 -2 c0 -3
-4 -8 -10 -11 -5 -3 -10 -1 -10 4 0 6 5 11 10 11 6 0 10 -2 10 -4z m252 -24
c-7 -2 -12 -10 -12 -18 0 -9 -5 -12 -10 -9 -7 4 -7 13 0 26 6 11 16 16 23 12
8 -5 8 -8 -1 -11z m3990 -16 c13 4 19 2 16 -6 -2 -6 -7 -11 -11 -11 -4 1 -16
1 -27 1 -14 0 -20 7 -20 23 1 20 2 20 11 4 7 -12 17 -16 31 -11z m126 7 c-2
-9 -13 -18 -25 -19 -23 -4 -28 14 -8 28 18 13 37 8 33 -9z m-4020 -9 c33 -9
31 -60 -3 -66 -14 -3 -25 -1 -25 4 0 5 -3 7 -7 5 -14 -8 -53 12 -53 27 0 9 6
13 14 10 7 -3 16 2 19 10 7 17 19 19 55 10z m-228 -19 c0 -8 -4 -15 -10 -15
-5 0 -10 7 -10 15 0 8 5 15 10 15 6 0 10 -7 10 -15z m1837 -31 c10 -10 12 -19
6 -25 -14 -14 -73 -20 -73 -9 0 6 6 10 14 10 7 0 16 9 19 20 6 24 13 25 34 4z
m2343 6 c0 -5 -7 -10 -15 -10 -8 0 -15 5 -15 10 0 6 7 10 15 10 8 0 15 -4 15
-10z m-4040 -20 c0 -5 -9 -10 -20 -10 -11 0 -20 5 -20 10 0 6 9 10 20 10 11 0
20 -4 20 -10z m2907 -22 c-3 -7 -5 -2 -5 12 0 14 2 19 5 13 2 -7 2 -19 0 -25z
m703 12 c0 -5 -4 -10 -10 -10 -5 0 -10 5 -10 10 0 6 5 10 10 10 6 0 10 -4 10
-10z m500 -31 c0 -5 -7 -9 -15 -9 -15 0 -20 12 -9 23 8 8 24 -1 24 -14z
m-4023 5 c-3 -3 -12 -4 -19 -1 -8 3 -5 6 6 6 11 1 17 -2 13 -5z m1351 -21 c-3
-29 -22 -36 -66 -24 l-27 8 40 21 c52 28 57 27 53 -5z m-1415 -5 c6 -21 7 -21
27 -3 20 18 20 18 20 -20 0 -35 -2 -37 -25 -31 -19 5 -25 2 -26 -11 0 -14 -3
-12 -12 6 -9 19 -9 25 1 29 21 7 13 19 -15 27 -26 7 -26 8 -8 15 30 13 32 12
38 -12z m3656 -24 c3 -16 1 -17 -13 -5 -19 16 -21 34 -3 29 6 -3 14 -13 16
-24z m-99 6 c0 -5 -2 -10 -4 -10 -3 0 -8 5 -11 10 -3 6 -1 10 4 10 6 0 11 -4
11 -10z m-4037 -16 c9 -4 17 -14 17 -23 0 -10 -3 -12 -8 -5 -4 6 -20 14 -35
18 -15 4 -25 11 -21 17 3 5 11 8 17 5 7 -4 20 -9 30 -12z m1497 7 c0 -9 -35
-23 -57 -23 -27 -1 -34 2 -28 12 4 6 9 9 13 6 4 -2 16 0 27 5 27 11 45 11 45
0z m-359 -11 c25 -14 25 -37 -1 -35 -26 2 -44 20 -36 34 9 14 12 14 37 1z m51
-22 c-6 -6 -15 -8 -19 -4 -4 4 -1 11 7 16 19 12 27 3 12 -12z m2665 -8 c-5
-30 -11 -31 -24 -4 -10 21 -9 24 8 24 13 0 18 -6 16 -20z m340 -12 c-3 -8 -6
-5 -6 6 -1 11 2 17 5 13 3 -3 4 -12 1 -19z m-2987 2 c0 -5 -4 -10 -10 -10 -5
0 -10 5 -10 10 0 6 5 10 10 10 6 0 10 -4 10 -10z m2821 -50 c5 0 9 -5 9 -11 0
-8 -5 -8 -15 1 -10 8 -15 9 -15 2 0 -6 -7 -9 -16 -5 -12 4 -15 2 -12 -8 3 -8
11 -15 19 -15 8 -1 21 -2 29 -3 12 -1 11 -4 -3 -12 -14 -8 -23 -7 -38 7 -15
13 -22 15 -31 6 -21 -21 -27 -13 -21 26 7 45 8 46 25 36 21 -13 49 -12 44 2
-2 6 -2 15 2 19 4 4 8 -5 10 -19 2 -14 8 -26 13 -26z m-411 11 c16 -31 12 -43
-11 -36 -14 5 -25 1 -33 -11 -10 -13 -15 -14 -21 -5 -4 7 2 22 15 36 16 17 18
24 8 28 -7 3 -3 6 9 6 12 1 27 -8 33 -18z m-3973 -13 c-3 -8 -6 -5 -6 6 -1 11
2 17 5 13 3 -3 4 -12 1 -19z m163 2 c0 -5 -4 -10 -10 -10 -5 0 -10 5 -10 10 0
6 5 10 10 10 6 0 10 -4 10 -10z m284 -32 c-3 -5 -12 -4 -20 3 -7 6 -11 15 -8
21 3 5 12 4 20 -3 7 -6 11 -15 8 -21z m2417 -35 c0 -38 2 -77 3 -88 15 -104
25 -220 23 -267 l-1 -57 -14 32 c-8 18 -16 53 -18 78 -2 26 -11 63 -19 82 -8
20 -15 46 -15 57 0 24 -31 28 -49 6 -11 -13 -97 -46 -121 -46 -6 0 -8 5 -5 10
12 19 -8 10 -31 -15 -13 -14 -48 -32 -83 -41 -34 -10 -61 -20 -61 -24 0 -4 37
-12 83 -19 45 -6 118 -20 162 -30 l80 -19 -210 2 c-115 0 -241 -3 -278 -8 -54
-7 -71 -6 -77 4 -7 11 -19 11 -70 0 -67 -14 -172 -78 -221 -133 -26 -30 -27
-30 -34 -8 -5 15 -12 20 -25 16 -22 -7 -34 20 -16 37 24 24 309 148 341 148
12 0 44 11 71 25 27 14 101 39 164 56 63 17 158 44 210 60 52 15 114 33 136
39 49 12 54 21 54 106 0 36 4 64 10 64 6 0 10 -30 11 -67z m126 31 c-9 -10
-38 16 -31 28 4 6 13 4 22 -6 9 -8 13 -19 9 -22z m874 23 c-1 -12 -15 -9 -19
4 -3 6 1 10 8 8 6 -3 11 -8 11 -12z m748 -4 c11 10 13 9 9 -3 -2 -8 -21 -19
-41 -24 -26 -7 -36 -14 -34 -27 1 -10 -2 -18 -8 -19 -5 -1 -17 -6 -26 -10 -23
-13 -35 1 -42 49 -4 32 -2 40 6 32 6 -6 28 -11 49 -11 29 0 38 4 38 17 0 15 1
15 18 0 15 -13 21 -14 31 -4z m165 1 c4 -9 4 -19 2 -21 -8 -8 -26 8 -26 23 0
19 16 18 24 -2z m-814 -48 c0 -7 -6 -20 -13 -30 -12 -16 -13 -14 -9 18 4 32
22 43 22 12z m767 -13 c2 -39 -13 -77 -26 -69 -5 3 -6 17 -3 31 2 14 -1 32 -8
40 -14 17 -5 35 18 35 13 0 18 -10 19 -37z m-4634 2 c4 -25 4 -25 -14 -9 -22
20 -24 34 -5 34 7 0 16 -11 19 -25z m-73 -20 c7 -8 26 -15 42 -15 30 0 58 -19
58 -39 0 -6 5 -11 11 -11 14 0 7 -42 -7 -47 -7 -2 -18 3 -26 10 -11 12 -19 12
-34 4 -10 -6 -31 -12 -46 -12 -28 0 -28 1 -28 63 0 63 7 74 30 47z m2430 -26
c0 -5 4 -8 9 -5 5 4 7 -3 4 -14 -6 -24 -19 -26 -27 -4 -9 23 -7 34 4 34 6 0
10 -5 10 -11z m1440 -46 c0 -57 -5 -53 -13 10 -4 31 -3 46 3 42 6 -3 10 -27
10 -52z m-3690 37 c0 -5 -4 -10 -10 -10 -5 0 -10 5 -10 10 0 6 5 10 10 10 6 0
10 -4 10 -10z m4190 -4 c0 -2 -7 -7 -16 -10 -8 -3 -12 -2 -9 4 6 10 25 14 25
6z m-3526 -15 c3 -4 17 -6 31 -4 30 6 40 -13 25 -51 -9 -25 -8 -27 9 -21 11 3
22 1 26 -5 3 -5 -1 -10 -11 -10 -9 0 -23 -8 -30 -17 -7 -10 -14 -13 -14 -7 0
7 -11 15 -24 18 -14 3 -28 15 -31 26 -3 11 -11 20 -16 20 -6 0 -7 6 -2 13 4 6
6 20 5 30 -3 17 22 24 32 8z m120 -46 c20 -31 20 -45 0 -45 -11 0 -14 6 -9 22
6 17 4 20 -9 15 -9 -4 -16 -5 -16 -3 0 3 -3 11 -6 20 -10 26 22 19 40 -9z
m789 12 c2 -6 -1 -17 -8 -24 -10 -9 -12 -6 -12 13 0 25 12 32 20 11z m2441
-12 l29 -24 -51 2 c-28 1 -57 8 -64 16 -11 11 -9 13 15 7 20 -5 27 -3 27 9 0
21 10 18 44 -10z m-2264 -5 c0 -5 -9 -6 -20 -3 -11 3 -17 9 -15 14 7 10 35 1
35 -11z m-223 -12 c-3 -8 -6 -5 -6 6 -1 11 2 17 5 13 3 -3 4 -12 1 -19z m323
18 c0 -3 -4 -8 -10 -11 -5 -3 -10 -1 -10 4 0 6 5 11 10 11 6 0 10 -2 10 -4z
m-1223 -36 c14 0 63 -54 63 -71 0 -17 -49 -22 -68 -6 -11 9 -11 13 4 24 16 11
16 13 2 13 -9 0 -20 -4 -23 -10 -3 -5 -15 -15 -27 -21 -17 -9 -19 -8 -13 10 5
18 3 20 -29 16 -42 -6 -44 -2 -12 31 16 18 26 22 31 14 5 -8 12 -5 23 11 14
20 16 20 27 5 7 -9 16 -16 22 -16z m233 20 c0 -5 -4 -10 -10 -10 -5 0 -10 5
-10 10 0 6 5 10 10 10 6 0 10 -4 10 -10z m50 1 c0 -12 -28 -22 -34 -12 -3 5
-3 11 1 15 9 9 33 7 33 -3z m930 -21 c0 -5 -2 -10 -4 -10 -3 0 -8 5 -11 10 -3
6 -1 10 4 10 6 0 11 -4 11 -10z m766 -22 c-3 -13 -6 -35 -6 -49 0 -20 -6 -28
-25 -33 -34 -9 -50 1 -33 21 7 9 13 21 13 27 0 13 36 54 49 55 4 1 6 -9 2 -21z
m-723 -38 c-8 -29 -21 -25 -15 5 2 14 8 23 12 20 5 -3 6 -14 3 -25z m-1018
-36 c-18 -13 -20 -13 -23 2 -5 21 19 37 33 23 7 -7 4 -15 -10 -25z m639 -37
c8 -34 -14 -46 -50 -27 -31 17 -30 33 3 60 29 23 35 19 47 -33z m-680 19 c-6
-16 -24 -23 -24 -8 0 10 22 33 27 28 2 -2 1 -11 -3 -20z m88 -11 c-5 -41 -9
-43 -21 -12 -5 13 -5 27 1 35 18 21 24 13 20 -23z m99 -38 c-16 -16 -25 -1
-10 16 8 8 16 11 18 5 2 -5 -2 -15 -8 -21z m-233 -1 c3 -12 -1 -17 -10 -14 -7
3 -15 13 -16 22 -3 12 1 17 10 14 7 -3 15 -13 16 -22z m762 4 c0 -5 -2 -10 -4
-10 -3 0 -8 5 -11 10 -3 6 -1 10 4 10 6 0 11 -4 11 -10z m-509 -23 c-10 -9
-11 -8 -5 6 3 10 9 15 12 12 3 -3 0 -11 -7 -18z m-511 -52 c0 -8 -4 -15 -10
-15 -5 0 -10 7 -10 15 0 8 5 15 10 15 6 0 10 -7 10 -15z m-240 -25 c0 -5 -4
-10 -10 -10 -5 0 -10 5 -10 10 0 6 5 10 10 10 6 0 10 -4 10 -10z m724 -19 c3
-5 -1 -11 -9 -14 -9 -4 -12 -1 -8 9 6 16 10 17 17 5z m455 -15 c9 -10 8 -15
-4 -20 -10 -4 -15 1 -15 14 0 24 4 25 19 6z m652 -18 c-30 -7 -47 -6 -54 1 -8
8 4 11 44 10 l54 -1 -44 -10z m748 -49 c-22 -13 -31 -11 -17 5 7 8 17 12 22 9
4 -3 2 -9 -5 -14z m655 7 c-3 -8 -13 -17 -22 -21 -13 -5 -13 -2 3 15 21 24 26
25 19 6z m-3211 -26 c3 -11 12 -20 20 -20 9 0 15 -10 15 -25 0 -15 -6 -25 -15
-25 -8 0 -11 5 -7 12 5 8 2 9 -9 5 -10 -4 -24 -10 -32 -13 -8 -3 -15 -1 -15 5
0 6 5 11 10 11 6 0 10 7 10 15 0 24 -17 17 -24 -10 -9 -34 -23 -32 -24 4 0 21
3 28 13 25 7 -3 18 4 25 15 14 26 26 27 33 1z m2591 4 c9 -3 12 -12 8 -22 -5
-15 -4 -15 11 -3 9 7 17 9 17 3 0 -5 -6 -12 -14 -15 -17 -7 -39 16 -28 28 4 5
-1 5 -10 2 -10 -4 -18 -2 -18 3 0 11 11 13 34 4z m9128 -35 c95 -49 149 -117
164 -207 l7 -42 -110 0 -110 0 -15 39 c-19 46 -52 71 -101 73 -95 3 -150 -77
-97 -144 24 -31 49 -41 162 -67 203 -47 286 -133 276 -283 -11 -158 -123 -255
-307 -266 -203 -11 -351 92 -376 261 l-7 48 113 -3 113 -3 7 -35 c4 -20 21
-47 38 -62 57 -51 174 -33 201 31 16 41 4 87 -30 111 -15 11 -63 27 -107 36
-218 45 -306 123 -306 273 0 113 53 198 151 243 89 40 252 39 334 -3z m828 13
c167 -55 270 -223 271 -442 1 -144 -28 -241 -97 -326 l-33 -42 49 -65 c28 -37
50 -69 50 -72 0 -3 -38 -5 -84 -5 -83 0 -85 1 -109 31 l-24 31 -61 -12 c-98
-20 -207 -9 -283 27 -116 54 -184 141 -219 278 -75 295 74 578 325 614 72 10
153 4 215 -17z m-9380 9 c0 -5 -13 -19 -30 -31 l-30 -21 0 23 c0 18 2 20 10 8
9 -13 14 -7 11 12 0 4 6 5 14 2 8 -4 15 -1 15 5 0 6 2 11 5 11 3 0 5 -4 5 -9z
m7938 -93 l3 -88 -206 0 -205 0 0 -95 0 -95 170 0 170 0 0 -80 0 -80 -170 0
-170 0 0 -100 0 -100 203 -2 202 -3 3 -87 3 -88 -311 0 -310 0 0 455 0 455
308 -2 307 -3 3 -87z m2032 -178 c0 -156 5 -290 11 -320 25 -117 134 -171 245
-121 31 14 47 30 65 67 23 48 24 56 27 347 l3 297 100 0 100 0 -3 -327 c-3
-315 -4 -330 -26 -385 -29 -72 -91 -136 -167 -174 -56 -27 -67 -29 -180 -29
-110 0 -125 3 -176 28 -104 50 -166 134 -188 252 -6 34 -11 182 -11 347 l0
288 100 0 100 0 0 -270z m1300 180 l0 -90 -205 0 -205 0 0 -95 0 -95 173 -2
172 -3 3 -77 3 -78 -176 0 -175 0 0 -100 0 -100 205 0 205 0 0 -90 0 -90 -305
0 -305 0 0 455 0 455 305 0 305 0 0 -90z m636 59 c110 -46 182 -124 221 -239
26 -79 26 -292 -1 -373 -36 -110 -117 -196 -224 -239 -52 -20 -77 -22 -284
-26 l-228 -4 0 457 0 457 228 -4 c217 -3 230 -4 288 -29z m986 -419 c87 -245
158 -449 158 -453 0 -4 -46 -6 -102 -5 l-102 3 -31 100 -31 100 -145 3 -146 3
-32 -106 -32 -105 -105 0 c-58 0 -103 3 -100 8 2 4 74 204 160 445 85 241 158
442 162 448 3 6 44 9 97 7 l92 -3 157 -445z m-16522 430 c0 -5 -2 -10 -4 -10
-3 0 -8 5 -11 10 -3 6 -1 10 4 10 6 0 11 -4 11 -10z m135 -10 c3 -5 1 -10 -4
-10 -6 0 -11 5 -11 10 0 6 2 10 4 10 3 0 8 -4 11 -10z m110 0 c-3 -5 -12 -10
-18 -10 -7 0 -6 4 3 10 19 12 23 12 15 0z m115 6 c0 -3 -4 -8 -10 -11 -5 -3
-10 -1 -10 4 0 6 5 11 10 11 6 0 10 -2 10 -4z m1442 -51 c-18 -25 -32 -51 -32
-57 0 -6 -3 -8 -6 -5 -9 9 15 68 39 94 34 38 33 16 -1 -32z m1300 33 c-7 -7
-12 -8 -12 -2 0 14 12 26 19 19 2 -3 -1 -11 -7 -17z m72 -7 c26 -11 36 -20 28
-25 -7 -4 -12 -3 -12 2 0 5 -14 8 -31 6 -21 -3 -28 0 -23 8 5 7 2 9 -9 5 -11
-4 -14 -2 -10 9 6 17 8 17 57 -5z m386 6 c0 -8 -11 -19 -25 -25 -32 -15 -35
-15 -35 -1 0 5 5 7 10 4 6 -3 10 1 10 9 0 10 6 13 15 10 8 -4 15 -1 15 5 0 6
2 11 5 11 3 0 5 -6 5 -13z m-272 -30 c16 0 10 -19 -8 -25 -9 -3 -10 0 -4 9 7
12 5 12 -9 0 -15 -12 -17 -11 -17 2 0 10 -6 14 -15 11 -8 -4 -15 -1 -15 6 0 8
9 10 28 5 15 -4 33 -8 40 -8z m189 -9 c-3 -8 -6 -5 -6 6 -1 11 2 17 5 13 3 -3
4 -12 1 -19z m-87 -5 c0 -15 -2 -16 -10 -3 -9 13 -11 13 -20 0 -5 -8 -10 -10
-10 -4 0 14 10 24 27 24 7 0 13 -8 13 -17z m21 -6 c-10 -9 -11 -8 -5 6 3 10 9
15 12 12 3 -3 0 -11 -7 -18z m-81 3 c0 -5 -5 -10 -11 -10 -5 0 -7 5 -4 10 3 6
8 10 11 10 2 0 4 -4 4 -10z m-3051 -14 c8 -10 9 -16 1 -21 -13 -8 -30 3 -30
21 0 18 14 18 29 0z m236 -6 c3 -5 1 -10 -4 -10 -6 0 -11 5 -11 10 0 6 2 10 4
10 3 0 8 -4 11 -10z m1735 -24 c0 -8 -7 -17 -16 -20 -28 -11 -34 -6 -17 14 20
23 33 26 33 6z m-2060 -12 c0 -8 -5 -12 -10 -9 -6 4 -8 11 -5 16 9 14 15 11
15 -7z m740 6 c0 -5 -4 -10 -10 -10 -5 0 -10 5 -10 10 0 6 5 10 10 10 6 0 10
-4 10 -10z m-708 -22 c-7 -7 -12 -8 -12 -2 0 14 12 26 19 19 2 -3 -1 -11 -7
-17z m2227 3 c-7 -10 -21 -24 -33 -31 -15 -9 -12 -3 8 19 34 35 41 39 25 12z
m-708 -18 c-12 -20 -14 -14 -5 12 4 9 9 14 11 11 3 -2 0 -13 -6 -23z m464 -13
c-3 -5 -13 -10 -21 -10 -8 0 -14 5 -14 10 0 6 9 10 21 10 11 0 17 -4 14 -10z
m-474 -53 c-9 -23 -31 -46 -31 -32 0 10 33 65 37 61 2 -2 -1 -15 -6 -29z
m-1267 -3 c19 -7 21 -40 4 -50 -12 -8 -38 21 -38 43 0 14 10 16 34 7z m592 -7
c14 5 20 -8 8 -20 -11 -10 -34 5 -33 22 0 9 3 11 5 4 3 -7 12 -9 20 -6z
m-1026 -1 c0 -3 -4 -8 -10 -11 -5 -3 -10 -1 -10 4 0 6 5 11 10 11 6 0 10 -2
10 -4z m320 -16 c0 -5 -2 -10 -4 -10 -3 0 -8 5 -11 10 -3 6 -1 10 4 10 6 0 11
-4 11 -10z m937 -12 c-3 -8 -6 -5 -6 6 -1 11 2 17 5 13 3 -3 4 -12 1 -19z
m-860 -19 c-3 -11 0 -19 7 -19 6 0 18 -9 26 -20 8 -11 20 -20 26 -20 19 0 3
-53 -23 -77 -23 -22 -23 -22 -36 -3 -7 12 -23 20 -37 20 -14 0 -31 5 -37 11
-7 7 -17 8 -25 3 -20 -13 -38 -13 -38 -1 0 5 -3 8 -6 4 -11 -11 -45 29 -39 46
6 15 28 17 41 4 13 -12 22 -8 27 14 3 13 12 19 24 17 12 -2 17 2 15 12 -3 12
-1 13 9 3 20 -20 31 -15 25 10 -3 12 -3 16 0 10 8 -18 24 -16 24 3 0 8 5 12
11 8 6 -3 9 -15 6 -25z m833 -4 c0 -7 -10 -11 -22 -10 -31 3 -31 3 -16 19 15
15 38 10 38 -9z m-250 -5 c0 -5 -4 -10 -10 -10 -5 0 -10 5 -10 10 0 6 5 10 10
10 6 0 10 -4 10 -10z m190 -10 c0 -5 -2 -10 -4 -10 -3 0 -8 5 -11 10 -3 6 -1
10 4 10 6 0 11 -4 11 -10z m490 -35 c-7 -20 -14 -34 -17 -31 -3 2 1 20 8 40
17 46 25 38 9 -9z m-1470 15 c0 -5 -4 -10 -9 -10 -6 0 -13 5 -16 10 -3 6 1 10
9 10 9 0 16 -4 16 -10z m1955 -59 c-15 -30 -35 -42 -35 -21 0 6 5 10 10 10 6
0 10 5 10 10 0 12 23 40 28 35 2 -2 -4 -17 -13 -34z m295 -41 c0 -10 -10 -25
-22 -31 -22 -12 -22 -11 -5 8 9 11 17 25 17 31 0 7 2 12 5 12 3 0 5 -9 5 -20z
m-813 -12 c-3 -8 -6 -5 -6 6 -1 11 2 17 5 13 3 -3 4 -12 1 -19z m469 -5 c-10
-10 -19 5 -10 18 6 11 8 11 12 0 2 -7 1 -15 -2 -18z m-26 -3 c0 -5 -5 -10 -11
-10 -5 0 -7 5 -4 10 3 6 8 10 11 10 2 0 4 -4 4 -10z m802 -40 c3 -17 0 -34 -6
-38 -17 -11 -100 -32 -206 -51 -52 -10 -113 -22 -135 -26 -28 -5 -37 -4 -30 3
6 6 68 27 139 46 71 20 134 40 140 46 5 5 19 10 31 10 11 0 26 9 33 20 17 28
29 25 34 -10z m-482 -128 c-1 -9 -17 -28 -38 -42 -36 -25 -94 -38 -252 -56
-30 -4 -58 -8 -61 -10 -4 -2 -12 2 -18 10 -16 20 21 50 62 48 57 -2 209 18
231 30 11 7 24 11 28 10 4 -1 12 7 18 18 12 23 30 18 30 -8z m-413 -132 c-6
-11 -15 -20 -20 -20 -4 0 -6 -4 -3 -8 7 -12 -107 -128 -145 -147 -16 -9 -29
-20 -29 -25 0 -6 -8 -10 -19 -10 -31 0 -211 -81 -239 -107 -7 -7 -18 -13 -23
-13 -5 0 -19 -15 -30 -32 -17 -28 -19 -29 -14 -8 4 14 14 37 21 52 8 15 14 36
14 47 0 14 5 19 16 14 13 -5 13 -7 2 -14 -10 -7 -10 -9 0 -9 7 0 35 16 62 35
27 19 53 35 56 35 3 0 45 26 92 57 90 60 176 110 202 119 8 3 23 19 33 35 9
17 21 28 27 24 6 -4 5 -13 -3 -25z m-1789 -53 c29 -27 28 -37 -5 -36 -21 1
-23 3 -8 6 17 5 15 8 -15 34 -22 19 -28 27 -15 23 11 -4 30 -16 43 -27z m-196
-25 c-7 -2 -12 -10 -12 -18 0 -8 -4 -14 -10 -14 -13 0 -13 17 1 26 6 3 8 18 4
33 l-6 26 17 -24 c13 -18 14 -26 6 -29z m48 28 c0 -5 -4 -10 -10 -10 -5 0 -10
5 -10 10 0 6 5 10 10 10 6 0 10 -4 10 -10z m-8 -99 c-6 -26 -6 -41 0 -41 5 0
6 -4 3 -10 -18 -29 -54 5 -60 56 -2 23 18 39 36 28 5 -3 9 3 9 12 0 14 3 15
11 7 9 -9 9 -23 1 -52z m666 42 c-4 -22 -48 -31 -48 -10 0 19 10 27 32 27 13
0 18 -6 16 -17z m377 -43 c3 -6 -1 -7 -9 -4 -18 7 -21 14 -7 14 6 0 13 -4 16
-10z m461 -26 c-4 -9 -9 -15 -11 -12 -3 3 -3 13 1 22 4 9 9 15 11 12 3 -3 3
-13 -1 -22z m2924 -91 c91 -170 93 -174 91 -240 -1 -50 2 -63 14 -63 17 0 20
-25 5 -35 -5 -3 -10 1 -10 9 0 20 -20 21 -21 1 -1 -8 -3 -19 -4 -25 -1 -5 -3
-13 -4 -17 -1 -5 -7 3 -13 17 -9 21 -12 22 -15 7 -3 -10 -9 -17 -15 -15 -14 5
-44 104 -53 174 -4 31 -13 79 -22 107 -10 34 -13 68 -8 104 3 29 8 53 10 53 2
0 23 -35 45 -77z m-4377 41 c8 -9 -11 -44 -23 -44 -6 0 -10 8 -10 18 0 27 18
41 33 26z m692 -4 c3 -5 2 -10 -4 -10 -5 0 -13 5 -16 10 -3 6 -2 10 4 10 5 0
13 -4 16 -10z m-619 -167 c-10 -10 -19 5 -10 18 6 11 8 11 12 0 2 -7 1 -15 -2
-18z m49 -23 c3 -5 1 -10 -4 -10 -6 0 -11 5 -11 10 0 6 2 10 4 10 3 0 8 -4 11
-10z m1225 -61 c-18 -28 -20 -29 -14 -9 15 53 27 76 31 59 2 -9 -6 -32 -17
-50z m-430 11 c0 -5 -4 -10 -9 -10 -6 0 -13 5 -16 10 -3 6 1 10 9 10 9 0 16
-4 16 -10z m8702 -10 c39 -11 68 -42 68 -72 0 -26 -61 -25 -78 2 -14 23 -57
27 -66 5 -10 -27 5 -43 52 -55 57 -14 78 -28 91 -63 14 -37 -4 -84 -40 -102
-73 -38 -179 3 -179 69 0 26 55 20 83 -8 27 -27 61 -26 71 1 10 24 -11 41 -70
58 -31 9 -58 24 -64 35 -18 33 -12 85 13 107 37 34 61 39 119 23z m329 -21
c25 -18 38 -45 52 -106 10 -45 -13 -111 -49 -143 -65 -57 -171 -34 -208 45
-23 48 -18 134 11 173 45 62 131 76 194 31z m2617 23 c28 -9 82 -59 82 -78 0
-23 -63 -18 -78 6 -18 30 -66 26 -91 -6 -47 -60 -15 -174 49 -174 33 0 60 23
60 51 0 14 -7 19 -25 19 -18 0 -25 5 -25 20 0 18 7 20 60 20 l60 0 0 -80 c0
-79 0 -80 -25 -80 -19 0 -25 5 -25 21 l0 20 -26 -20 c-56 -44 -143 -18 -175
52 -25 56 -24 103 4 157 32 64 89 90 155 72z m1920 -10 c19 -9 43 -32 54 -49
l20 -33 -34 0 c-22 0 -42 7 -53 20 -23 25 -56 26 -85 2 -17 -14 -24 -32 -28
-73 -5 -69 21 -109 73 -109 34 0 48 11 59 48 7 19 4 22 -23 22 -24 0 -31 4
-31 20 0 18 7 20 60 20 l60 0 0 -80 c0 -79 0 -80 -25 -80 -18 0 -25 5 -25 20
l0 21 -22 -21 c-45 -41 -137 -19 -173 43 -25 42 -25 134 1 178 21 37 74 69
114 69 14 0 40 -8 58 -18z m377 4 c34 -14 55 -41 55 -70 0 -26 -66 -22 -73 4
-6 22 -45 28 -65 8 -20 -20 5 -46 63 -63 67 -19 90 -48 81 -100 -13 -66 -108
-98 -176 -58 -26 15 -50 50 -50 73 0 21 59 10 84 -15 29 -29 35 -30 60 -12 31
23 12 53 -42 67 -61 15 -92 44 -92 85 0 74 76 114 155 81z m-13380 -17 l30
-20 -40 7 c-47 8 -49 9 -40 23 9 15 16 14 50 -10z m8755 -9 l0 -30 -65 0 -65
0 0 -30 c0 -28 1 -29 58 -32 50 -3 57 -6 60 -25 3 -22 0 -23 -57 -23 l-61 0 0
-65 0 -65 -30 0 -30 0 0 150 0 150 95 0 95 0 0 -30z m240 0 c0 -28 -2 -30 -40
-30 l-40 0 0 -120 0 -120 -30 0 -30 0 0 120 0 120 -40 0 c-38 0 -40 2 -40 30
l0 30 110 0 110 0 0 -30z m99 -7 c5 -21 15 -66 22 -100 7 -35 16 -63 20 -63 3
0 19 45 35 100 28 98 29 100 59 100 30 0 31 -2 59 -100 16 -55 32 -100 35
-100 4 0 13 28 20 63 26 131 29 137 61 137 17 0 30 -5 30 -12 0 -6 -16 -73
-36 -150 l-37 -138 -38 0 -38 0 -28 91 c-30 101 -28 102 -63 -18 l-21 -73 -38
0 -38 0 -36 139 c-21 77 -37 144 -37 150 0 6 13 11 30 11 25 0 30 -5 39 -37z
m580 -109 c28 -80 51 -148 51 -150 0 -3 -14 -4 -32 -2 -27 2 -34 9 -42 36 -9
32 -10 33 -60 30 -47 -3 -51 -5 -60 -35 -8 -29 -13 -33 -43 -33 -19 0 -33 4
-31 8 2 5 25 72 52 150 l50 142 32 0 32 0 51 -146z m262 129 c53 -32 56 -131
4 -160 -15 -9 -14 -15 15 -66 l32 -57 -34 0 c-30 0 -37 5 -64 52 -16 29 -37
54 -47 56 -14 3 -17 -5 -17 -52 l0 -56 -35 0 -35 0 0 150 0 150 76 0 c54 0 84
-5 105 -17z m289 -14 l0 -30 -67 2 -68 3 -3 -32 -3 -32 60 0 c58 0 61 -1 61
-25 0 -24 -3 -25 -60 -25 l-60 0 0 -35 0 -35 70 0 70 0 0 -30 0 -30 -100 0
-100 0 0 150 0 150 100 0 100 0 0 -31z m340 0 l0 -31 -65 4 -65 3 0 -32 0 -33
55 0 c52 0 55 -1 55 -25 0 -24 -3 -25 -55 -25 l-55 0 0 -35 0 -35 65 0 65 0 0
-30 0 -30 -100 0 -100 0 0 150 0 150 100 0 100 0 0 -31z m173 -59 c26 -49 52
-92 57 -95 6 -4 10 31 10 89 l0 96 30 0 30 0 0 -150 0 -150 -38 0 c-37 0 -38
2 -94 98 l-58 97 0 -97 0 -98 -30 0 -30 0 0 150 0 150 38 0 c36 0 38 -2 85
-90z m547 -60 l0 -150 -30 0 -30 0 0 150 0 150 30 0 30 0 0 -150z m177 72 c71
-132 72 -132 73 -19 l0 97 30 0 30 0 0 -150 0 -150 -39 0 c-39 0 -39 0 -93 95
l-53 95 -3 -95 -3 -95 -29 0 -30 0 0 150 0 150 38 0 c36 0 38 -2 79 -78z m383
54 c0 -29 -16 -36 -86 -36 -53 0 -54 0 -54 -30 l0 -30 60 0 c57 0 60 -1 60
-25 0 -24 -3 -25 -60 -25 l-60 0 0 -35 0 -35 70 0 70 0 0 -30 0 -30 -100 0
-100 0 0 150 0 150 100 0 c99 0 100 0 100 -24z m240 -6 l0 -30 -65 0 -65 0 0
-30 c0 -30 1 -30 55 -30 52 0 55 -1 55 -25 0 -24 -3 -25 -55 -25 l-55 0 0 -35
0 -35 65 0 65 0 0 -30 0 -30 -100 0 -100 0 0 150 0 150 100 0 100 0 0 -30z
m221 13 c55 -33 63 -113 14 -151 l-24 -19 30 -51 c16 -28 29 -54 29 -57 0 -3
-15 -5 -33 -5 -30 0 -35 5 -60 55 -19 39 -32 55 -47 55 -18 0 -20 -7 -20 -55
0 -54 0 -55 -30 -55 l-30 0 0 150 0 150 71 0 c49 0 80 -5 100 -17z m159 -133
l0 -150 -35 0 -35 0 0 150 0 150 35 0 35 0 0 -150z m163 77 c21 -39 47 -83 57
-97 l20 -25 0 98 0 97 30 0 30 0 0 -150 0 -150 -38 0 c-38 0 -39 1 -95 98
l-57 97 0 -97 0 -98 -30 0 -30 0 0 150 0 150 38 0 c36 0 38 -2 75 -73z m1069
43 c-4 -27 -8 -30 -38 -30 -26 0 -34 -4 -34 -17 -1 -10 -2 -63 -3 -118 l-2
-100 -32 -3 -33 -3 0 120 0 121 -40 0 c-38 0 -40 2 -40 30 l0 30 113 0 114 0
-5 -30z m108 -68 c0 -116 13 -145 63 -140 45 4 57 35 57 146 l0 92 31 0 31 0
-4 -121 -3 -121 -33 -29 c-56 -50 -161 -35 -192 28 -8 16 -15 74 -18 136 l-4
107 36 0 36 0 0 -98z m442 61 c29 -29 33 -40 36 -100 6 -118 -43 -163 -178
-163 l-70 0 0 151 0 151 90 -4 c86 -3 91 -4 122 -35z m288 20 c0 -34 -16 -45
-61 -43 -77 3 -79 3 -79 -30 0 -30 1 -30 55 -30 52 0 55 -1 55 -25 0 -24 -3
-25 -55 -25 l-55 0 0 -35 0 -34 68 -3 c64 -3 67 -4 67 -28 0 -25 -1 -25 -102
-28 l-103 -3 0 151 0 150 105 0 c93 0 105 -2 105 -17z m163 -73 c26 -49 52
-92 57 -95 6 -4 10 31 10 89 l0 96 30 0 30 0 0 -150 0 -150 -38 0 c-38 0 -39
1 -95 98 l-57 97 0 -97 0 -98 -30 0 -30 0 0 150 0 150 38 0 c36 0 38 -2 85
-90z m390 78 c2 -7 2 -21 -1 -31 -4 -15 -12 -18 -38 -15 -19 2 -34 2 -34 -2 0
-3 -2 -57 -3 -120 l-2 -115 -32 -3 -33 -3 0 120 0 121 -40 0 c-38 0 -40 2 -40
30 l0 30 109 0 c79 0 111 -4 114 -12z m-16563 -18 c0 -5 -5 -10 -11 -10 -5 0
-7 5 -4 10 3 6 8 10 11 10 2 0 4 -4 4 -10z m1348 -128 c23 -35 23 -36 5 -49
-17 -13 -16 -16 23 -48 44 -37 124 -135 124 -153 0 -6 -21 -32 -46 -58 -25
-26 -48 -61 -51 -76 -3 -16 -10 -31 -14 -34 -5 -3 -9 -12 -9 -21 0 -8 -10 -29
-22 -45 -12 -17 -29 -58 -37 -92 -30 -112 0 -225 84 -316 37 -40 89 -134 70
-126 -13 5 -15 0 -9 -29 3 -19 3 -52 -1 -72 l-7 -38 -14 28 c-16 30 -34 28
-34 -4 0 -10 -3 -19 -7 -20 -32 -3 -61 -12 -79 -24 -12 -7 -30 -11 -41 -9 -14
4 -28 -4 -47 -27 -20 -24 -36 -32 -59 -32 -17 0 -33 5 -35 11 -7 22 -40 12
-61 -17 -19 -26 -27 -29 -97 -33 -83 -6 -93 -13 -88 -61 4 -31 4 -31 -11 -10
-31 44 -34 70 -24 190 6 65 12 174 14 243 2 69 7 135 10 147 4 17 1 21 -15 20
-11 -1 -20 -4 -20 -8 0 -11 -158 -11 -165 1 -3 5 -12 10 -18 10 -8 0 -8 -3 2
-9 7 -5 9 -11 5 -14 -14 -8 -118 -18 -222 -22 -178 -7 -325 -17 -354 -26 -17
-5 -26 -4 -23 2 4 5 2 9 -4 9 -5 0 -11 -4 -13 -10 -1 -5 -54 -12 -115 -15
l-113 -6 0 146 0 145 58 0 c31 0 102 5 157 10 87 9 930 70 960 70 6 0 26 37
45 83 36 89 122 250 151 282 9 11 37 56 60 99 37 69 44 77 53 62 6 -10 22 -35
34 -54z m3221 12 c17 -14 31 -32 31 -40 0 -8 18 -33 39 -55 29 -30 44 -39 59
-35 29 9 42 -14 52 -91 4 -37 11 -77 14 -88 9 -28 -5 -44 -50 -60 l-39 -14 43
-1 c38 0 42 -2 42 -25 0 -14 0 -28 0 -32 1 -10 -74 -22 -170 -28 -41 -2 -82
-5 -90 -6 -8 -1 -27 -1 -42 -1 l-28 2 0 116 c0 68 -6 140 -14 173 -19 72 -23
126 -12 128 5 0 13 8 18 17 5 9 14 16 20 16 5 0 23 11 40 25 37 31 49 31 87
-1z m634 -270 c62 -19 111 -58 153 -125 l24 -39 -166 -283 c-92 -155 -175
-288 -186 -295 -10 -7 -16 -18 -13 -23 4 -5 1 -9 -5 -9 -6 0 -8 -6 -5 -12 4
-7 -1 -4 -9 6 -18 22 -21 14 -6 -14 7 -13 7 -21 -2 -26 -7 -5 -8 -3 -3 6 5 9
4 11 -4 6 -6 -4 -9 -12 -6 -17 5 -8 -41 -99 -51 -99 -5 0 18 52 28 65 4 5 8
22 8 39 0 16 14 58 30 93 17 34 30 70 30 79 0 8 23 65 51 125 l51 109 1 115
c0 63 4 115 8 115 8 0 23 75 18 87 -2 5 -9 7 -16 5 -7 -2 -10 3 -7 11 3 8 -4
31 -15 50 -19 34 -19 37 -3 46 9 6 22 8 27 6 6 -2 36 -12 68 -21z m-180 0 c3
-4 -7 -23 -23 -43 -22 -27 -28 -42 -23 -60 4 -17 3 -22 -5 -17 -8 5 -12 -5
-12 -33 0 -24 -5 -41 -11 -41 -14 0 -5 83 9 88 6 2 8 11 5 21 -2 9 6 34 19 54
23 37 30 42 41 31z m417 -59 c0 -8 -50 -85 -55 -85 -9 0 -35 72 -29 81 5 9 84
13 84 4z m-310 -69 c0 -3 -4 -8 -10 -11 -5 -3 -10 -1 -10 4 0 6 5 11 10 11 6
0 10 -2 10 -4z m-3299 -68 c-26 -67 -42 -92 -50 -79 -5 7 -29 11 -59 10 -29
-1 -55 0 -58 3 -3 4 2 20 10 37 9 16 16 37 16 45 0 16 26 22 107 25 l51 1 -17
-42z m-281 -644 c7 -13 10 -27 7 -31 -4 -3 -7 1 -7 10 0 10 -4 17 -10 17 -5 0
-14 9 -20 20 -8 15 -8 18 3 14 8 -3 20 -16 27 -30z m69 -111 c24 -38 38 -69
32 -71 -6 -2 -11 -14 -11 -26 0 -31 23 -77 36 -72 14 5 39 -38 30 -52 -19 -31
-109 39 -122 96 -3 15 -8 34 -12 42 -16 42 -28 99 -19 93 6 -4 7 4 4 19 -6 24
-1 38 13 38 3 0 26 -30 49 -67z"/>
<path d="M1266 8123 c-12 -13 -6 -53 9 -53 8 0 15 -5 15 -12 0 -6 3 -8 6 -5 4
4 2 13 -5 20 -6 8 -9 21 -5 30 6 16 -9 31 -20 20z"/>
<path d="M1341 8084 c0 -11 3 -14 6 -6 3 7 2 16 -1 19 -3 4 -6 -2 -5 -13z"/>
<path d="M1605 8020 c-3 -5 1 -10 9 -10 8 0 18 5 21 10 3 6 -1 10 -9 10 -8 0
-18 -4 -21 -10z"/>
<path d="M1655 7980 c4 -6 11 -8 16 -5 14 9 11 15 -7 15 -8 0 -12 -5 -9 -10z"/>
<path d="M1666 7961 c-6 -10 22 -37 29 -29 8 7 -5 38 -15 38 -5 0 -11 -4 -14
-9z"/>
<path d="M1726 7941 c-3 -5 1 -11 9 -14 9 -4 12 -1 8 9 -6 16 -10 17 -17 5z"/>
<path d="M1756 7897 c3 -10 9 -15 12 -12 3 3 0 11 -7 18 -10 9 -11 8 -5 -6z"/>
<path d="M1445 7745 c19 -16 31 -20 34 -13 5 14 -27 38 -48 38 -11 -1 -6 -9
14 -25z"/>
<path d="M1510 7711 c0 -15 49 -26 62 -13 8 8 6 11 -8 10 -10 0 -27 3 -36 7
-11 4 -18 3 -18 -4z"/>
<path d="M1691 7621 c-10 -7 -7 -9 12 -8 14 1 23 5 20 10 -6 9 -15 9 -32 -2z"/>
<path d="M1925 7410 c-3 -5 -1 -10 4 -10 6 0 11 5 11 10 0 6 -2 10 -4 10 -3 0
-8 -4 -11 -10z"/>
<path d="M1536 6895 c-7 -19 0 -35 16 -35 5 0 7 7 4 16 -5 13 -2 15 14 11 14
-3 20 -1 17 6 -6 19 -44 20 -51 2z"/>
<path d="M1120 6510 c0 -5 5 -10 10 -10 6 0 10 5 10 10 0 6 -4 10 -10 10 -5 0
-10 -4 -10 -10z"/>
<path d="M1450 6386 c0 -4 7 -14 15 -22 8 -9 15 -11 15 -6 0 5 -7 15 -15 22
-8 7 -15 9 -15 6z"/>
<path d="M1110 6356 c0 -2 7 -9 15 -16 9 -7 15 -8 15 -2 0 5 -7 12 -15 16 -8
3 -15 4 -15 2z"/>
<path d="M1918 8133 c7 -3 16 -2 19 1 4 3 -2 6 -13 5 -11 0 -14 -3 -6 -6z"/>
<path d="M1936 8077 c3 -10 9 -15 12 -12 3 3 0 11 -7 18 -10 9 -11 8 -5 -6z"/>
<path d="M6674 8062 c-8 -5 -6 -15 6 -35 15 -24 19 -26 30 -12 10 12 9 16 -4
21 -10 4 -15 13 -12 20 6 15 -3 18 -20 6z"/>
<path d="M6172 7765 c-10 -21 -8 -27 11 -40 19 -13 20 -18 9 -36 -16 -25 -7
-37 16 -23 23 15 26 38 7 57 -10 11 -13 25 -9 42 8 34 -19 34 -34 0z"/>
<path d="M5936 7751 c-3 -5 4 -11 16 -14 30 -8 35 -1 9 12 -11 6 -22 7 -25 2z"/>
<path d="M6280 7719 c0 -5 5 -7 10 -4 6 3 10 8 10 11 0 2 -4 4 -10 4 -5 0 -10
-5 -10 -11z"/>
<path d="M5995 7650 c-3 -5 -1 -10 4 -10 6 0 11 5 11 10 0 6 -2 10 -4 10 -3 0
-8 -4 -11 -10z"/>
<path d="M5704 7635 c-9 -22 1 -29 15 -11 8 10 9 16 1 21 -5 3 -13 -1 -16 -10z"/>
<path d="M5790 7590 c-8 -5 -11 -12 -7 -16 4 -4 13 -2 19 4 15 15 7 24 -12 12z"/>
<path d="M5835 7560 c3 -5 8 -10 11 -10 2 0 4 5 4 10 0 6 -5 10 -11 10 -5 0
-7 -4 -4 -10z"/>
<path d="M5448 7253 c6 -2 12 -11 12 -19 0 -19 16 -18 24 2 9 23 8 24 -21 23
-16 0 -22 -3 -15 -6z"/>
<path d="M6220 6580 c0 -14 25 -29 37 -22 7 5 3 11 -13 19 -13 6 -24 8 -24 3z"/>
<path d="M5717 6533 c-4 -3 -7 -11 -7 -17 0 -6 5 -5 12 2 6 6 9 14 7 17 -3 3
-9 2 -12 -2z"/>
<path d="M6270 6473 c0 -3 6 -11 14 -18 12 -12 16 -12 26 0 7 8 11 15 9 16
-18 4 -49 5 -49 2z"/>
<path d="M7237 5333 c-11 -10 -8 -63 3 -63 6 0 10 16 10 35 0 36 -2 40 -13 28z"/>
<path d="M7240 5250 c0 -5 5 -10 11 -10 5 0 7 5 4 10 -3 6 -8 10 -11 10 -2 0
-4 -4 -4 -10z"/>
<path d="M7280 4980 c0 -5 5 -10 10 -10 6 0 10 5 10 10 0 6 -4 10 -10 10 -5 0
-10 -4 -10 -10z"/>
<path d="M7315 4980 c3 -5 8 -10 11 -10 2 0 4 5 4 10 0 6 -5 10 -11 10 -5 0
-7 -4 -4 -10z"/>
<path d="M6165 4930 c-3 -5 -1 -10 4 -10 6 0 11 5 11 10 0 6 -2 10 -4 10 -3 0
-8 -4 -11 -10z"/>
<path d="M6442 4845 c0 -16 2 -22 5 -12 2 9 2 23 0 30 -3 6 -5 -1 -5 -18z"/>
<path d="M6301 4834 c0 -11 3 -14 6 -6 3 7 2 16 -1 19 -3 4 -6 -2 -5 -13z"/>
<path d="M6390 4835 c0 -9 6 -12 15 -9 8 4 15 7 15 9 0 2 -7 5 -15 9 -9 3 -15
0 -15 -9z"/>
<path d="M6793 4803 c15 -2 37 -2 50 0 12 2 0 4 -28 4 -27 0 -38 -2 -22 -4z"/>
<path d="M6390 4786 c0 -2 7 -7 16 -10 8 -3 12 -2 9 4 -6 10 -25 14 -25 6z"/>
<path d="M6960 4691 c0 -25 6 -27 13 -6 4 8 2 17 -3 20 -6 4 -10 -3 -10 -14z"/>
<path d="M6881 4684 c0 -11 3 -14 6 -6 3 7 2 16 -1 19 -3 4 -6 -2 -5 -13z"/>
<path d="M6880 4620 c0 -16 4 -30 9 -30 5 0 11 14 13 30 3 20 0 30 -9 30 -8 0
-13 -12 -13 -30z"/>
<path d="M7082 4630 c0 -14 2 -19 5 -12 2 6 2 18 0 25 -3 6 -5 1 -5 -13z"/>
<path d="M7101 4624 c0 -11 3 -14 6 -6 3 7 2 16 -1 19 -3 4 -6 -2 -5 -13z"/>
<path d="M6828 4562 c-22 -4 -23 -21 -3 -28 11 -5 13 -10 5 -19 -8 -10 -8 -15
0 -20 17 -10 22 -1 18 37 -2 26 -7 33 -20 30z"/>
<path d="M6887 4553 c-2 -5 -1 -19 3 -33 6 -24 7 -24 11 8 5 29 -4 44 -14 25z"/>
<path d="M6420 4428 c0 -9 5 -20 10 -23 13 -8 13 5 0 25 -8 13 -10 13 -10 -2z"/>
<path d="M6397 4405 c-4 -8 -2 -17 3 -20 6 -4 10 3 10 14 0 25 -6 27 -13 6z"/>
<path d="M6306 4383 c-6 -14 -5 -15 5 -6 7 7 10 15 7 18 -3 3 -9 -2 -12 -12z"/>
<path d="M6547 4380 c3 -11 9 -17 14 -15 10 7 1 35 -11 35 -5 0 -6 -9 -3 -20z"/>
<path d="M6430 4373 c0 -5 4 -14 9 -21 7 -11 9 -11 14 1 3 8 3 18 0 21 -9 8
-23 7 -23 -1z"/>
<path d="M6631 4326 c7 -15 15 -24 17 -18 2 6 10 8 18 5 8 -3 14 0 14 6 0 6
-8 11 -18 11 -10 0 -24 6 -31 13 -10 10 -10 6 0 -17z"/>
<path d="M6541 4329 c0 -9 6 -22 14 -29 10 -9 15 -9 15 -1 0 6 -4 11 -9 11 -5
0 -12 8 -14 18 -4 14 -5 14 -6 1z"/>
<path d="M6867 4303 c-4 -6 -3 -21 1 -34 11 -29 21 -12 12 21 -3 15 -9 20 -13
13z"/>
<path d="M6720 4284 c0 -8 5 -12 10 -9 6 3 10 10 10 16 0 5 -4 9 -10 9 -5 0
-10 -7 -10 -16z"/>
<path d="M6401 4270 c0 -8 4 -22 9 -30 12 -18 12 -2 0 25 -6 13 -9 15 -9 5z"/>
<path d="M6850 4245 c0 -18 -16 -20 -23 -2 -3 7 -6 5 -6 -5 -1 -12 6 -18 19
-18 13 0 20 7 20 20 0 11 -2 20 -5 20 -3 0 -5 -7 -5 -15z"/>
<path d="M6442 4230 c0 -14 2 -19 5 -12 2 6 2 18 0 25 -3 6 -5 1 -5 -13z"/>
<path d="M6736 4241 c-3 -5 0 -11 7 -14 8 -3 14 1 14 9 0 16 -13 19 -21 5z"/>
<path d="M6870 4230 c0 -5 7 -10 16 -10 8 0 12 5 9 10 -3 6 -10 10 -16 10 -5
0 -9 -4 -9 -10z"/>
<path d="M6630 4139 c0 -5 5 -7 10 -4 6 3 10 8 10 11 0 2 -4 4 -10 4 -5 0 -10
-5 -10 -11z"/>
<path d="M6765 4130 c-3 -5 1 -10 10 -10 9 0 13 5 10 10 -3 6 -8 10 -10 10 -2
0 -7 -4 -10 -10z"/>
<path d="M6660 4124 c0 -7 27 -34 34 -34 3 0 6 9 6 20 0 13 -7 20 -20 20 -11
0 -20 -3 -20 -6z"/>
<path d="M6631 4064 c0 -11 3 -14 6 -6 3 7 2 16 -1 19 -3 4 -6 -2 -5 -13z"/>
<path d="M6530 4063 c0 -5 5 -15 10 -23 8 -12 10 -11 10 8 0 12 -4 22 -10 22
-5 0 -10 -3 -10 -7z"/>
<path d="M6670 4059 c0 -5 5 -7 10 -4 6 3 10 8 10 11 0 2 -4 4 -10 4 -5 0 -10
-5 -10 -11z"/>
<path d="M6140 7951 c0 -5 5 -13 10 -16 6 -3 10 -2 10 4 0 5 -4 13 -10 16 -5
3 -10 2 -10 -4z"/>
<path d="M3650 7640 c-13 -8 -13 -10 2 -10 9 0 20 5 23 10 8 13 -5 13 -25 0z"/>
<path d="M3981 7284 c0 -11 3 -14 6 -6 3 7 2 16 -1 19 -3 4 -6 -2 -5 -13z"/>
<path d="M3580 7013 c0 -4 5 -15 10 -23 8 -13 10 -13 10 2 0 9 -4 20 -10 23
-5 3 -10 3 -10 -2z"/>
<path d="M17290 6662 c-80 -42 -126 -161 -118 -303 8 -135 75 -234 167 -246
94 -13 161 27 202 119 20 45 24 69 24 163 0 94 -4 117 -23 160 -41 89 -89 125
-169 125 -28 0 -63 -8 -83 -18z"/>
<path d="M12870 6394 l0 -277 94 5 c157 8 221 55 247 176 17 82 6 201 -23 260
-39 80 -108 112 -240 112 l-78 0 0 -276z"/>
<path d="M14766 6477 c-20 -63 -39 -129 -42 -146 l-6 -31 91 0 c50 0 91 3 91
6 0 15 -83 270 -90 278 -5 4 -24 -44 -44 -107z"/>
<path d="M15510 6544 l0 -126 88 4 c108 5 158 27 179 77 20 46 11 100 -22 128
-34 30 -86 43 -172 43 l-73 0 0 -126z"/>
<path d="M16292 6398 l3 -273 63 -3 c144 -7 235 40 267 139 23 67 18 248 -8
296 -42 79 -117 113 -249 113 l-78 0 2 -272z"/>
<path d="M3466 5865 c-11 -8 -29 -15 -40 -15 -12 -1 -37 -9 -56 -20 -19 -11
-28 -19 -20 -19 28 0 181 54 174 62 -12 11 -37 8 -58 -8z"/>
<path d="M13924 5401 c-74 -45 -114 -139 -114 -267 0 -176 76 -284 200 -284
22 0 40 2 40 6 0 4 -87 126 -123 172 -7 9 10 12 79 12 l89 -1 34 -45 c18 -25
37 -42 42 -37 14 14 39 126 39 178 0 112 -49 226 -113 265 -43 27 -131 27
-173 1z"/>
<path d="M16360 5135 l0 -278 95 5 c130 7 178 32 219 112 27 52 30 67 30 154
0 205 -57 271 -246 280 l-98 5 0 -278z"/>
<path d="M17362 5203 c-23 -76 -42 -144 -42 -151 0 -9 23 -12 90 -11 50 1 90
4 90 6 0 9 -91 293 -94 293 -1 0 -21 -62 -44 -137z"/>
<path d="M11080 4282 c-30 -24 -38 -97 -16 -140 14 -26 23 -32 50 -32 18 0 39
6 45 14 22 27 31 78 21 118 -16 56 -58 74 -100 40z"/>
<path d="M12308 4220 l-16 -50 34 0 c19 0 34 1 34 3 0 1 -8 23 -18 50 l-18 47
-16 -50z"/>
<path d="M12565 4292 c-3 -3 -5 -23 -5 -44 0 -37 1 -38 34 -38 39 0 59 19 54
52 -2 18 -11 24 -40 29 -21 3 -40 4 -43 1z"/>
<path d="M14930 4251 c0 -40 1 -41 33 -41 45 0 59 12 55 46 -3 26 -7 29 -45
32 l-43 3 0 -40z"/>
<path d="M16830 4200 l0 -90 40 0 c56 0 80 26 80 88 0 68 -20 92 -76 92 l-44
0 0 -90z"/>
<path d="M2198 3683 c7 -3 16 -2 19 1 4 3 -2 6 -13 5 -11 0 -14 -3 -6 -6z"/>
<path d="M2138 3673 c6 -2 18 -2 25 0 6 3 1 5 -13 5 -14 0 -19 -2 -12 -5z"/>
<path d="M1498 3623 c12 -2 30 -2 40 0 9 3 -1 5 -23 4 -22 0 -30 -2 -17 -4z"/>
<path d="M1423 3613 c9 -2 25 -2 35 0 9 3 1 5 -18 5 -19 0 -27 -2 -17 -5z"/>
<path d="M1338 3603 c6 -2 18 -2 25 0 6 3 1 5 -13 5 -14 0 -19 -2 -12 -5z"/>
<path d="M1168 3593 c6 -2 18 -2 25 0 6 3 1 5 -13 5 -14 0 -19 -2 -12 -5z"/>
<path d="M2150 3550 c0 -11 14 -11 50 0 22 7 21 8 -12 9 -21 1 -38 -3 -38 -9z"/>
<path d="M1730 3409 c0 -5 5 -7 10 -4 6 3 10 8 10 11 0 2 -4 4 -10 4 -5 0 -10
-5 -10 -11z"/>
<path d="M5780 4201 c0 -25 6 -27 13 -6 4 8 2 17 -3 20 -6 4 -10 -3 -10 -14z"/>
<path d="M5731 4073 c-1 -24 4 -43 9 -43 12 0 12 24 0 60 -7 21 -8 19 -9 -17z"/>
<path d="M5844 4078 c-11 -17 7 -28 22 -14 8 8 14 16 14 19 0 7 -31 4 -36 -5z"/>
<path d="M5760 3989 c0 -5 -3 -8 -7 -6 -5 3 -17 1 -28 -4 -19 -7 -19 -8 2 -8
12 -1 28 2 37 5 18 7 22 24 6 24 -5 0 -10 -5 -10 -11z"/>
</g>
</svg>
